M48
; DRILL file {KiCad (5.1.6-0-10_14)} date Thursday, September 24, 2020 at 08:20:34 PM
; FORMAT={-:-/ absolute / inch / decimal}
; #@! TF.CreationDate,2020-09-24T20:20:34-04:00
; #@! TF.GenerationSoftware,Kicad,Pcbnew,(5.1.6-0-10_14)
; #@! TF.FileFunction,Plated,1,2,PTH
FMAT,2
INCH
T1C0.0157
T2C0.0197
T3C0.0394
T4C0.0512
T5C0.1457
%
G90
G05
T1
X5.315Y-1.8898
X5.4331Y-2.0472
X5.4724Y-1.7323
X6.1024Y-1.7717
T2
X3.8357Y-1.845
X3.8677Y-1.7677
X3.8677Y-1.9223
X3.945Y-1.7357
X3.945Y-1.9543
X4.0223Y-1.7677
X4.0223Y-1.9223
X4.0543Y-1.845
T3
X5.6154Y-2.126
X5.7154Y-2.126
X5.8154Y-2.126
X5.9154Y-2.126
T5
X3.945Y-1.845
T3
G00X4.2421Y-2.065
M15
G01X4.2421Y-2.0059
M16
G05
G00X4.5374Y-2.065
M15
G01X4.5374Y-2.0059
M16
G05
G00X4.8327Y-2.065
M15
G01X4.8327Y-2.0059
M16
G05
G00X5.128Y-2.065
M15
G01X5.128Y-2.0059
M16
G05
T4
G00X4.4134Y-1.8898
M15
G01X4.3661Y-1.8898
M16
G05
G00X5.0039Y-1.8898
M15
G01X4.9567Y-1.8898
M16
G05
T0
M30
