%TF.GenerationSoftware,KiCad,Pcbnew,(5.1.6-0-10_14)*%
%TF.CreationDate,2020-09-24T20:20:29-04:00*%
%TF.ProjectId,zn-2 stereo breakout,7a6e2d32-2073-4746-9572-656f20627265,rev?*%
%TF.SameCoordinates,Original*%
%TF.FileFunction,Legend,Top*%
%TF.FilePolarity,Positive*%
%FSLAX46Y46*%
G04 Gerber Fmt 4.6, Leading zero omitted, Abs format (unit mm)*
G04 Created by KiCad (PCBNEW (5.1.6-0-10_14)) date 2020-09-24 20:20:29*
%MOMM*%
%LPD*%
G01*
G04 APERTURE LIST*
%ADD10C,0.150000*%
%ADD11C,0.120000*%
G04 APERTURE END LIST*
D10*
X128619047Y-43547619D02*
X127952380Y-43547619D01*
X128619047Y-42547619D01*
X127952380Y-42547619D01*
X127571428Y-42547619D02*
X127571428Y-43547619D01*
X127000000Y-42547619D01*
X127000000Y-43547619D01*
X126523809Y-42928571D02*
X125761904Y-42928571D01*
X125333333Y-43452380D02*
X125285714Y-43500000D01*
X125190476Y-43547619D01*
X124952380Y-43547619D01*
X124857142Y-43500000D01*
X124809523Y-43452380D01*
X124761904Y-43357142D01*
X124761904Y-43261904D01*
X124809523Y-43119047D01*
X125380952Y-42547619D01*
X124761904Y-42547619D01*
X123619047Y-42595238D02*
X123476190Y-42547619D01*
X123238095Y-42547619D01*
X123142857Y-42595238D01*
X123095238Y-42642857D01*
X123047619Y-42738095D01*
X123047619Y-42833333D01*
X123095238Y-42928571D01*
X123142857Y-42976190D01*
X123238095Y-43023809D01*
X123428571Y-43071428D01*
X123523809Y-43119047D01*
X123571428Y-43166666D01*
X123619047Y-43261904D01*
X123619047Y-43357142D01*
X123571428Y-43452380D01*
X123523809Y-43500000D01*
X123428571Y-43547619D01*
X123190476Y-43547619D01*
X123047619Y-43500000D01*
X122761904Y-43214285D02*
X122380952Y-43214285D01*
X122619047Y-43547619D02*
X122619047Y-42690476D01*
X122571428Y-42595238D01*
X122476190Y-42547619D01*
X122380952Y-42547619D01*
X121666666Y-42595238D02*
X121761904Y-42547619D01*
X121952380Y-42547619D01*
X122047619Y-42595238D01*
X122095238Y-42690476D01*
X122095238Y-43071428D01*
X122047619Y-43166666D01*
X121952380Y-43214285D01*
X121761904Y-43214285D01*
X121666666Y-43166666D01*
X121619047Y-43071428D01*
X121619047Y-42976190D01*
X122095238Y-42880952D01*
X121190476Y-42547619D02*
X121190476Y-43214285D01*
X121190476Y-43023809D02*
X121142857Y-43119047D01*
X121095238Y-43166666D01*
X121000000Y-43214285D01*
X120904761Y-43214285D01*
X120190476Y-42595238D02*
X120285714Y-42547619D01*
X120476190Y-42547619D01*
X120571428Y-42595238D01*
X120619047Y-42690476D01*
X120619047Y-43071428D01*
X120571428Y-43166666D01*
X120476190Y-43214285D01*
X120285714Y-43214285D01*
X120190476Y-43166666D01*
X120142857Y-43071428D01*
X120142857Y-42976190D01*
X120619047Y-42880952D01*
X119571428Y-42547619D02*
X119666666Y-42595238D01*
X119714285Y-42642857D01*
X119761904Y-42738095D01*
X119761904Y-43023809D01*
X119714285Y-43119047D01*
X119666666Y-43166666D01*
X119571428Y-43214285D01*
X119428571Y-43214285D01*
X119333333Y-43166666D01*
X119285714Y-43119047D01*
X119238095Y-43023809D01*
X119238095Y-42738095D01*
X119285714Y-42642857D01*
X119333333Y-42595238D01*
X119428571Y-42547619D01*
X119571428Y-42547619D01*
X117714285Y-43071428D02*
X117571428Y-43023809D01*
X117523809Y-42976190D01*
X117476190Y-42880952D01*
X117476190Y-42738095D01*
X117523809Y-42642857D01*
X117571428Y-42595238D01*
X117666666Y-42547619D01*
X118047619Y-42547619D01*
X118047619Y-43547619D01*
X117714285Y-43547619D01*
X117619047Y-43500000D01*
X117571428Y-43452380D01*
X117523809Y-43357142D01*
X117523809Y-43261904D01*
X117571428Y-43166666D01*
X117619047Y-43119047D01*
X117714285Y-43071428D01*
X118047619Y-43071428D01*
X117047619Y-42547619D02*
X117047619Y-43214285D01*
X117047619Y-43023809D02*
X117000000Y-43119047D01*
X116952380Y-43166666D01*
X116857142Y-43214285D01*
X116761904Y-43214285D01*
X116047619Y-42595238D02*
X116142857Y-42547619D01*
X116333333Y-42547619D01*
X116428571Y-42595238D01*
X116476190Y-42690476D01*
X116476190Y-43071428D01*
X116428571Y-43166666D01*
X116333333Y-43214285D01*
X116142857Y-43214285D01*
X116047619Y-43166666D01*
X116000000Y-43071428D01*
X116000000Y-42976190D01*
X116476190Y-42880952D01*
X115142857Y-42547619D02*
X115142857Y-43071428D01*
X115190476Y-43166666D01*
X115285714Y-43214285D01*
X115476190Y-43214285D01*
X115571428Y-43166666D01*
X115142857Y-42595238D02*
X115238095Y-42547619D01*
X115476190Y-42547619D01*
X115571428Y-42595238D01*
X115619047Y-42690476D01*
X115619047Y-42785714D01*
X115571428Y-42880952D01*
X115476190Y-42928571D01*
X115238095Y-42928571D01*
X115142857Y-42976190D01*
X114666666Y-42547619D02*
X114666666Y-43547619D01*
X114571428Y-42928571D02*
X114285714Y-42547619D01*
X114285714Y-43214285D02*
X114666666Y-42833333D01*
X113714285Y-42547619D02*
X113809523Y-42595238D01*
X113857142Y-42642857D01*
X113904761Y-42738095D01*
X113904761Y-43023809D01*
X113857142Y-43119047D01*
X113809523Y-43166666D01*
X113714285Y-43214285D01*
X113571428Y-43214285D01*
X113476190Y-43166666D01*
X113428571Y-43119047D01*
X113380952Y-43023809D01*
X113380952Y-42738095D01*
X113428571Y-42642857D01*
X113476190Y-42595238D01*
X113571428Y-42547619D01*
X113714285Y-42547619D01*
X112523809Y-43214285D02*
X112523809Y-42547619D01*
X112952380Y-43214285D02*
X112952380Y-42690476D01*
X112904761Y-42595238D01*
X112809523Y-42547619D01*
X112666666Y-42547619D01*
X112571428Y-42595238D01*
X112523809Y-42642857D01*
X112190476Y-43214285D02*
X111809523Y-43214285D01*
X112047619Y-43547619D02*
X112047619Y-42690476D01*
X112000000Y-42595238D01*
X111904761Y-42547619D01*
X111809523Y-42547619D01*
X110809523Y-43214285D02*
X110571428Y-42547619D01*
X110333333Y-43214285D01*
X110000000Y-43452380D02*
X109952380Y-43500000D01*
X109857142Y-43547619D01*
X109619047Y-43547619D01*
X109523809Y-43500000D01*
X109476190Y-43452380D01*
X109428571Y-43357142D01*
X109428571Y-43261904D01*
X109476190Y-43119047D01*
X110047619Y-42547619D01*
X109428571Y-42547619D01*
D11*
%TO.C,C5*%
X154260000Y-52260000D02*
X154260000Y-51060000D01*
X154260000Y-47740000D02*
X154260000Y-48940000D01*
X150804437Y-47740000D02*
X154260000Y-47740000D01*
X150804437Y-52260000D02*
X154260000Y-52260000D01*
X149740000Y-51195563D02*
X149740000Y-51060000D01*
X149740000Y-48804437D02*
X149740000Y-48940000D01*
X149740000Y-48804437D02*
X150804437Y-47740000D01*
X149740000Y-51195563D02*
X150804437Y-52260000D01*
X149000000Y-48440000D02*
X149500000Y-48440000D01*
X149250000Y-48190000D02*
X149250000Y-48690000D01*
%TO.C,C6*%
X133250000Y-50190000D02*
X133250000Y-50690000D01*
X133000000Y-50440000D02*
X133500000Y-50440000D01*
X133740000Y-53195563D02*
X134804437Y-54260000D01*
X133740000Y-50804437D02*
X134804437Y-49740000D01*
X133740000Y-50804437D02*
X133740000Y-50940000D01*
X133740000Y-53195563D02*
X133740000Y-53060000D01*
X134804437Y-54260000D02*
X138260000Y-54260000D01*
X134804437Y-49740000D02*
X138260000Y-49740000D01*
X138260000Y-49740000D02*
X138260000Y-50940000D01*
X138260000Y-54260000D02*
X138260000Y-53060000D01*
%TO.C,C7*%
X154750000Y-46810000D02*
X154750000Y-46310000D01*
X155000000Y-46560000D02*
X154500000Y-46560000D01*
X154260000Y-43804437D02*
X153195563Y-42740000D01*
X154260000Y-46195563D02*
X153195563Y-47260000D01*
X154260000Y-46195563D02*
X154260000Y-46060000D01*
X154260000Y-43804437D02*
X154260000Y-43940000D01*
X153195563Y-42740000D02*
X149740000Y-42740000D01*
X153195563Y-47260000D02*
X149740000Y-47260000D01*
X149740000Y-47260000D02*
X149740000Y-46060000D01*
X149740000Y-42740000D02*
X149740000Y-43940000D01*
%TO.C,C8*%
X146260000Y-47260000D02*
X146260000Y-46060000D01*
X146260000Y-42740000D02*
X146260000Y-43940000D01*
X142804437Y-42740000D02*
X146260000Y-42740000D01*
X142804437Y-47260000D02*
X146260000Y-47260000D01*
X141740000Y-46195563D02*
X141740000Y-46060000D01*
X141740000Y-43804437D02*
X141740000Y-43940000D01*
X141740000Y-43804437D02*
X142804437Y-42740000D01*
X141740000Y-46195563D02*
X142804437Y-47260000D01*
X141000000Y-43440000D02*
X141500000Y-43440000D01*
X141250000Y-43190000D02*
X141250000Y-43690000D01*
%TO.C,R3*%
X133828733Y-43490000D02*
X134171267Y-43490000D01*
X133828733Y-44510000D02*
X134171267Y-44510000D01*
%TO.C,R4*%
X137828733Y-44510000D02*
X138171267Y-44510000D01*
X137828733Y-43490000D02*
X138171267Y-43490000D01*
%TO.C,R5*%
X133828733Y-47490000D02*
X134171267Y-47490000D01*
X133828733Y-48510000D02*
X134171267Y-48510000D01*
%TO.C,R6*%
X137828733Y-48510000D02*
X138171267Y-48510000D01*
X137828733Y-47490000D02*
X138171267Y-47490000D01*
%TO.C,R7*%
X146490000Y-50171267D02*
X146490000Y-49828733D01*
X147510000Y-50171267D02*
X147510000Y-49828733D01*
%TO.C,R8*%
X144510000Y-50171267D02*
X144510000Y-49828733D01*
X143490000Y-50171267D02*
X143490000Y-49828733D01*
%TO.C,J1*%
X131500000Y-44000000D02*
X106500000Y-44000000D01*
X106500000Y-44000000D02*
X106500000Y-54000000D01*
X106500000Y-54000000D02*
X131500000Y-54000000D01*
X131500000Y-54000000D02*
X131500000Y-44000000D01*
%TO.C,R5*%
D10*
X133833333Y-45452380D02*
X133357142Y-45452380D01*
X133309523Y-45928571D01*
X133357142Y-45880952D01*
X133452380Y-45833333D01*
X133690476Y-45833333D01*
X133785714Y-45880952D01*
X133833333Y-45928571D01*
X133880952Y-46023809D01*
X133880952Y-46261904D01*
X133833333Y-46357142D01*
X133785714Y-46404761D01*
X133690476Y-46452380D01*
X133452380Y-46452380D01*
X133357142Y-46404761D01*
X133309523Y-46357142D01*
X134309523Y-46452380D02*
X134309523Y-45452380D01*
X134404761Y-46071428D02*
X134690476Y-46452380D01*
X134690476Y-45785714D02*
X134309523Y-46166666D01*
%TO.C,R6*%
X137833333Y-45452380D02*
X137357142Y-45452380D01*
X137309523Y-45928571D01*
X137357142Y-45880952D01*
X137452380Y-45833333D01*
X137690476Y-45833333D01*
X137785714Y-45880952D01*
X137833333Y-45928571D01*
X137880952Y-46023809D01*
X137880952Y-46261904D01*
X137833333Y-46357142D01*
X137785714Y-46404761D01*
X137690476Y-46452380D01*
X137452380Y-46452380D01*
X137357142Y-46404761D01*
X137309523Y-46357142D01*
X138309523Y-46452380D02*
X138309523Y-45452380D01*
X138404761Y-46071428D02*
X138690476Y-46452380D01*
X138690476Y-45785714D02*
X138309523Y-46166666D01*
%TO.C,R8*%
X145360714Y-50590476D02*
X146027380Y-50590476D01*
X144979761Y-50828571D02*
X145694047Y-51066666D01*
X145694047Y-50447619D01*
X145027380Y-50161904D02*
X145027380Y-49495238D01*
X146027380Y-49923809D01*
X146027380Y-49114285D02*
X145027380Y-49114285D01*
X145646428Y-49019047D02*
X146027380Y-48733333D01*
X145360714Y-48733333D02*
X145741666Y-49114285D01*
%TD*%
M02*
