%TF.GenerationSoftware,KiCad,Pcbnew,(5.1.6-0-10_14)*%
%TF.CreationDate,2020-09-24T20:20:29-04:00*%
%TF.ProjectId,zn-2 stereo breakout,7a6e2d32-2073-4746-9572-656f20627265,rev?*%
%TF.SameCoordinates,Original*%
%TF.FileFunction,Copper,L2,Bot*%
%TF.FilePolarity,Positive*%
%FSLAX46Y46*%
G04 Gerber Fmt 4.6, Leading zero omitted, Abs format (unit mm)*
G04 Created by KiCad (PCBNEW (5.1.6-0-10_14)) date 2020-09-24 20:20:29*
%MOMM*%
%LPD*%
G01*
G04 APERTURE LIST*
%TA.AperFunction,NonConductor*%
%ADD10C,0.200000*%
%TD*%
%TA.AperFunction,EtchedComponent*%
%ADD11C,0.010000*%
%TD*%
%TA.AperFunction,ComponentPad*%
%ADD12C,7.400000*%
%TD*%
%TA.AperFunction,ComponentPad*%
%ADD13C,0.800000*%
%TD*%
%TA.AperFunction,ComponentPad*%
%ADD14R,1.700000X1.700000*%
%TD*%
%TA.AperFunction,ComponentPad*%
%ADD15O,1.700000X1.700000*%
%TD*%
%TA.AperFunction,ComponentPad*%
%ADD16O,2.000000X3.500000*%
%TD*%
%TA.AperFunction,ComponentPad*%
%ADD17O,3.500000X2.300000*%
%TD*%
%TA.AperFunction,ViaPad*%
%ADD18C,0.800000*%
%TD*%
%TA.AperFunction,Conductor*%
%ADD19C,0.250000*%
%TD*%
G04 APERTURE END LIST*
D10*
X107952380Y-44214285D02*
X107952380Y-43404761D01*
X107904761Y-43309523D01*
X107857142Y-43261904D01*
X107761904Y-43214285D01*
X107619047Y-43214285D01*
X107523809Y-43261904D01*
X107952380Y-43595238D02*
X107857142Y-43547619D01*
X107666666Y-43547619D01*
X107571428Y-43595238D01*
X107523809Y-43642857D01*
X107476190Y-43738095D01*
X107476190Y-44023809D01*
X107523809Y-44119047D01*
X107571428Y-44166666D01*
X107666666Y-44214285D01*
X107857142Y-44214285D01*
X107952380Y-44166666D01*
X108428571Y-43547619D02*
X108428571Y-44214285D01*
X108428571Y-44547619D02*
X108380952Y-44500000D01*
X108428571Y-44452380D01*
X108476190Y-44500000D01*
X108428571Y-44547619D01*
X108428571Y-44452380D01*
X108761904Y-44214285D02*
X109142857Y-44214285D01*
X108904761Y-44547619D02*
X108904761Y-43690476D01*
X108952380Y-43595238D01*
X109047619Y-43547619D01*
X109142857Y-43547619D01*
X109476190Y-43547619D02*
X109476190Y-44547619D01*
X109904761Y-43547619D02*
X109904761Y-44071428D01*
X109857142Y-44166666D01*
X109761904Y-44214285D01*
X109619047Y-44214285D01*
X109523809Y-44166666D01*
X109476190Y-44119047D01*
X110809523Y-44214285D02*
X110809523Y-43547619D01*
X110380952Y-44214285D02*
X110380952Y-43690476D01*
X110428571Y-43595238D01*
X110523809Y-43547619D01*
X110666666Y-43547619D01*
X110761904Y-43595238D01*
X110809523Y-43642857D01*
X111285714Y-43547619D02*
X111285714Y-44547619D01*
X111285714Y-44166666D02*
X111380952Y-44214285D01*
X111571428Y-44214285D01*
X111666666Y-44166666D01*
X111714285Y-44119047D01*
X111761904Y-44023809D01*
X111761904Y-43738095D01*
X111714285Y-43642857D01*
X111666666Y-43595238D01*
X111571428Y-43547619D01*
X111380952Y-43547619D01*
X111285714Y-43595238D01*
X112190476Y-43642857D02*
X112238095Y-43595238D01*
X112190476Y-43547619D01*
X112142857Y-43595238D01*
X112190476Y-43642857D01*
X112190476Y-43547619D01*
X113095238Y-43595238D02*
X112999999Y-43547619D01*
X112809523Y-43547619D01*
X112714285Y-43595238D01*
X112666666Y-43642857D01*
X112619047Y-43738095D01*
X112619047Y-44023809D01*
X112666666Y-44119047D01*
X112714285Y-44166666D01*
X112809523Y-44214285D01*
X112999999Y-44214285D01*
X113095238Y-44166666D01*
X113666666Y-43547619D02*
X113571428Y-43595238D01*
X113523809Y-43642857D01*
X113476190Y-43738095D01*
X113476190Y-44023809D01*
X113523809Y-44119047D01*
X113571428Y-44166666D01*
X113666666Y-44214285D01*
X113809523Y-44214285D01*
X113904761Y-44166666D01*
X113952380Y-44119047D01*
X113999999Y-44023809D01*
X113999999Y-43738095D01*
X113952380Y-43642857D01*
X113904761Y-43595238D01*
X113809523Y-43547619D01*
X113666666Y-43547619D01*
X114428571Y-43547619D02*
X114428571Y-44214285D01*
X114428571Y-44119047D02*
X114476190Y-44166666D01*
X114571428Y-44214285D01*
X114714285Y-44214285D01*
X114809523Y-44166666D01*
X114857142Y-44071428D01*
X114857142Y-43547619D01*
X114857142Y-44071428D02*
X114904761Y-44166666D01*
X114999999Y-44214285D01*
X115142857Y-44214285D01*
X115238095Y-44166666D01*
X115285714Y-44071428D01*
X115285714Y-43547619D01*
X116476190Y-44595238D02*
X115619047Y-43309523D01*
X116761904Y-43595238D02*
X116857142Y-43547619D01*
X117047619Y-43547619D01*
X117142857Y-43595238D01*
X117190476Y-43690476D01*
X117190476Y-43738095D01*
X117142857Y-43833333D01*
X117047619Y-43880952D01*
X116904761Y-43880952D01*
X116809523Y-43928571D01*
X116761904Y-44023809D01*
X116761904Y-44071428D01*
X116809523Y-44166666D01*
X116904761Y-44214285D01*
X117047619Y-44214285D01*
X117142857Y-44166666D01*
X117619047Y-43547619D02*
X117619047Y-44214285D01*
X117619047Y-44547619D02*
X117571428Y-44500000D01*
X117619047Y-44452380D01*
X117666666Y-44500000D01*
X117619047Y-44547619D01*
X117619047Y-44452380D01*
X118095238Y-43547619D02*
X118095238Y-44214285D01*
X118095238Y-44119047D02*
X118142857Y-44166666D01*
X118238095Y-44214285D01*
X118380952Y-44214285D01*
X118476190Y-44166666D01*
X118523809Y-44071428D01*
X118523809Y-43547619D01*
X118523809Y-44071428D02*
X118571428Y-44166666D01*
X118666666Y-44214285D01*
X118809523Y-44214285D01*
X118904761Y-44166666D01*
X118952380Y-44071428D01*
X118952380Y-43547619D01*
X119571428Y-43547619D02*
X119476190Y-43595238D01*
X119428571Y-43642857D01*
X119380952Y-43738095D01*
X119380952Y-44023809D01*
X119428571Y-44119047D01*
X119476190Y-44166666D01*
X119571428Y-44214285D01*
X119714285Y-44214285D01*
X119809523Y-44166666D01*
X119857142Y-44119047D01*
X119904761Y-44023809D01*
X119904761Y-43738095D01*
X119857142Y-43642857D01*
X119809523Y-43595238D01*
X119714285Y-43547619D01*
X119571428Y-43547619D01*
X120333333Y-44214285D02*
X120333333Y-43547619D01*
X120333333Y-44119047D02*
X120380952Y-44166666D01*
X120476190Y-44214285D01*
X120619047Y-44214285D01*
X120714285Y-44166666D01*
X120761904Y-44071428D01*
X120761904Y-43547619D01*
X121380952Y-43547619D02*
X121285714Y-43595238D01*
X121238095Y-43690476D01*
X121238095Y-44547619D01*
X122190476Y-43595238D02*
X122095238Y-43547619D01*
X121904761Y-43547619D01*
X121809523Y-43595238D01*
X121761904Y-43642857D01*
X121714285Y-43738095D01*
X121714285Y-44023809D01*
X121761904Y-44119047D01*
X121809523Y-44166666D01*
X121904761Y-44214285D01*
X122095238Y-44214285D01*
X122190476Y-44166666D01*
X123333333Y-44595238D02*
X122476190Y-43309523D01*
X123571428Y-44214285D02*
X124095238Y-44214285D01*
X123571428Y-43547619D01*
X124095238Y-43547619D01*
X124476190Y-44214285D02*
X124476190Y-43547619D01*
X124476190Y-44119047D02*
X124523809Y-44166666D01*
X124619047Y-44214285D01*
X124761904Y-44214285D01*
X124857142Y-44166666D01*
X124904761Y-44071428D01*
X124904761Y-43547619D01*
X125333333Y-44452380D02*
X125380952Y-44500000D01*
X125476190Y-44547619D01*
X125714285Y-44547619D01*
X125809523Y-44500000D01*
X125857142Y-44452380D01*
X125904761Y-44357142D01*
X125904761Y-44261904D01*
X125857142Y-44119047D01*
X125285714Y-43547619D01*
X125904761Y-43547619D01*
X126285714Y-43595238D02*
X126380952Y-43547619D01*
X126571428Y-43547619D01*
X126666666Y-43595238D01*
X126714285Y-43690476D01*
X126714285Y-43738095D01*
X126666666Y-43833333D01*
X126571428Y-43880952D01*
X126428571Y-43880952D01*
X126333333Y-43928571D01*
X126285714Y-44023809D01*
X126285714Y-44071428D01*
X126333333Y-44166666D01*
X126428571Y-44214285D01*
X126571428Y-44214285D01*
X126666666Y-44166666D01*
X126999999Y-44214285D02*
X127380952Y-44214285D01*
X127142857Y-44547619D02*
X127142857Y-43690476D01*
X127190476Y-43595238D01*
X127285714Y-43547619D01*
X127380952Y-43547619D01*
X128095238Y-43595238D02*
X127999999Y-43547619D01*
X127809523Y-43547619D01*
X127714285Y-43595238D01*
X127666666Y-43690476D01*
X127666666Y-44071428D01*
X127714285Y-44166666D01*
X127809523Y-44214285D01*
X127999999Y-44214285D01*
X128095238Y-44166666D01*
X128142857Y-44071428D01*
X128142857Y-43976190D01*
X127666666Y-43880952D01*
X128571428Y-43547619D02*
X128571428Y-44214285D01*
X128571428Y-44023809D02*
X128619047Y-44119047D01*
X128666666Y-44166666D01*
X128761904Y-44214285D01*
X128857142Y-44214285D01*
X129571428Y-43595238D02*
X129476190Y-43547619D01*
X129285714Y-43547619D01*
X129190476Y-43595238D01*
X129142857Y-43690476D01*
X129142857Y-44071428D01*
X129190476Y-44166666D01*
X129285714Y-44214285D01*
X129476190Y-44214285D01*
X129571428Y-44166666D01*
X129619047Y-44071428D01*
X129619047Y-43976190D01*
X129142857Y-43880952D01*
X130190476Y-43547619D02*
X130095238Y-43595238D01*
X130047619Y-43642857D01*
X129999999Y-43738095D01*
X129999999Y-44023809D01*
X130047619Y-44119047D01*
X130095238Y-44166666D01*
X130190476Y-44214285D01*
X130333333Y-44214285D01*
X130428571Y-44166666D01*
X130476190Y-44119047D01*
X130523809Y-44023809D01*
X130523809Y-43738095D01*
X130476190Y-43642857D01*
X130428571Y-43595238D01*
X130333333Y-43547619D01*
X130190476Y-43547619D01*
D11*
%TO.C,REF\u002A\u002A*%
G36*
X116599744Y-46330082D02*
G01*
X116655201Y-46302432D01*
X116704148Y-46251520D01*
X116717629Y-46232662D01*
X116732314Y-46207985D01*
X116741842Y-46181184D01*
X116747293Y-46145413D01*
X116749747Y-46093831D01*
X116750286Y-46025733D01*
X116747852Y-45932412D01*
X116739394Y-45862343D01*
X116723174Y-45810069D01*
X116697454Y-45770131D01*
X116660497Y-45737071D01*
X116657782Y-45735114D01*
X116621360Y-45715092D01*
X116577502Y-45705185D01*
X116521724Y-45702743D01*
X116431048Y-45702743D01*
X116431010Y-45614717D01*
X116430166Y-45565692D01*
X116425024Y-45536935D01*
X116411587Y-45519689D01*
X116385858Y-45505192D01*
X116379679Y-45502231D01*
X116350764Y-45488352D01*
X116328376Y-45479586D01*
X116311729Y-45478829D01*
X116300036Y-45488977D01*
X116292510Y-45512927D01*
X116288366Y-45553574D01*
X116286815Y-45613814D01*
X116287071Y-45696545D01*
X116288349Y-45804661D01*
X116288748Y-45837000D01*
X116290185Y-45948476D01*
X116291472Y-46021397D01*
X116430971Y-46021397D01*
X116431755Y-45959501D01*
X116435240Y-45919003D01*
X116443124Y-45892292D01*
X116457105Y-45871756D01*
X116466597Y-45861740D01*
X116505404Y-45832433D01*
X116539763Y-45830048D01*
X116575216Y-45854250D01*
X116576114Y-45855143D01*
X116590539Y-45873847D01*
X116599313Y-45899268D01*
X116603739Y-45938416D01*
X116605118Y-45998303D01*
X116605143Y-46011570D01*
X116601812Y-46094099D01*
X116590969Y-46151309D01*
X116571340Y-46186234D01*
X116541650Y-46201906D01*
X116524491Y-46203486D01*
X116483766Y-46196074D01*
X116455832Y-46171670D01*
X116439017Y-46127020D01*
X116431650Y-46058870D01*
X116430971Y-46021397D01*
X116291472Y-46021397D01*
X116291708Y-46034755D01*
X116293677Y-46099667D01*
X116296450Y-46147042D01*
X116300388Y-46180710D01*
X116305849Y-46204502D01*
X116313192Y-46222247D01*
X116322777Y-46237776D01*
X116326887Y-46243619D01*
X116381405Y-46298815D01*
X116450336Y-46330110D01*
X116530072Y-46338835D01*
X116599744Y-46330082D01*
G37*
X116599744Y-46330082D02*
X116655201Y-46302432D01*
X116704148Y-46251520D01*
X116717629Y-46232662D01*
X116732314Y-46207985D01*
X116741842Y-46181184D01*
X116747293Y-46145413D01*
X116749747Y-46093831D01*
X116750286Y-46025733D01*
X116747852Y-45932412D01*
X116739394Y-45862343D01*
X116723174Y-45810069D01*
X116697454Y-45770131D01*
X116660497Y-45737071D01*
X116657782Y-45735114D01*
X116621360Y-45715092D01*
X116577502Y-45705185D01*
X116521724Y-45702743D01*
X116431048Y-45702743D01*
X116431010Y-45614717D01*
X116430166Y-45565692D01*
X116425024Y-45536935D01*
X116411587Y-45519689D01*
X116385858Y-45505192D01*
X116379679Y-45502231D01*
X116350764Y-45488352D01*
X116328376Y-45479586D01*
X116311729Y-45478829D01*
X116300036Y-45488977D01*
X116292510Y-45512927D01*
X116288366Y-45553574D01*
X116286815Y-45613814D01*
X116287071Y-45696545D01*
X116288349Y-45804661D01*
X116288748Y-45837000D01*
X116290185Y-45948476D01*
X116291472Y-46021397D01*
X116430971Y-46021397D01*
X116431755Y-45959501D01*
X116435240Y-45919003D01*
X116443124Y-45892292D01*
X116457105Y-45871756D01*
X116466597Y-45861740D01*
X116505404Y-45832433D01*
X116539763Y-45830048D01*
X116575216Y-45854250D01*
X116576114Y-45855143D01*
X116590539Y-45873847D01*
X116599313Y-45899268D01*
X116603739Y-45938416D01*
X116605118Y-45998303D01*
X116605143Y-46011570D01*
X116601812Y-46094099D01*
X116590969Y-46151309D01*
X116571340Y-46186234D01*
X116541650Y-46201906D01*
X116524491Y-46203486D01*
X116483766Y-46196074D01*
X116455832Y-46171670D01*
X116439017Y-46127020D01*
X116431650Y-46058870D01*
X116430971Y-46021397D01*
X116291472Y-46021397D01*
X116291708Y-46034755D01*
X116293677Y-46099667D01*
X116296450Y-46147042D01*
X116300388Y-46180710D01*
X116305849Y-46204502D01*
X116313192Y-46222247D01*
X116322777Y-46237776D01*
X116326887Y-46243619D01*
X116381405Y-46298815D01*
X116450336Y-46330110D01*
X116530072Y-46338835D01*
X116599744Y-46330082D01*
G36*
X117716093Y-46322220D02*
G01*
X117762672Y-46295277D01*
X117795057Y-46268534D01*
X117818742Y-46240516D01*
X117835059Y-46206252D01*
X117845339Y-46160773D01*
X117850914Y-46099108D01*
X117853116Y-46016289D01*
X117853371Y-45956754D01*
X117853371Y-45737609D01*
X117791686Y-45709956D01*
X117730000Y-45682303D01*
X117722743Y-45922330D01*
X117719744Y-46011972D01*
X117716598Y-46077038D01*
X117712701Y-46121974D01*
X117707447Y-46151230D01*
X117700231Y-46169252D01*
X117690450Y-46180489D01*
X117687312Y-46182921D01*
X117639761Y-46201917D01*
X117591697Y-46194400D01*
X117563086Y-46174457D01*
X117551447Y-46160325D01*
X117543391Y-46141780D01*
X117538271Y-46113666D01*
X117535441Y-46070827D01*
X117534256Y-46008105D01*
X117534057Y-45942739D01*
X117534018Y-45860732D01*
X117532614Y-45802684D01*
X117527914Y-45763535D01*
X117517987Y-45738220D01*
X117500903Y-45721677D01*
X117474732Y-45708844D01*
X117439775Y-45695509D01*
X117401596Y-45680993D01*
X117406141Y-45938611D01*
X117407971Y-46031481D01*
X117410112Y-46100111D01*
X117413181Y-46149289D01*
X117417794Y-46183802D01*
X117424568Y-46208438D01*
X117434119Y-46227984D01*
X117445634Y-46245230D01*
X117501190Y-46300320D01*
X117568980Y-46332178D01*
X117642713Y-46339809D01*
X117716093Y-46322220D01*
G37*
X117716093Y-46322220D02*
X117762672Y-46295277D01*
X117795057Y-46268534D01*
X117818742Y-46240516D01*
X117835059Y-46206252D01*
X117845339Y-46160773D01*
X117850914Y-46099108D01*
X117853116Y-46016289D01*
X117853371Y-45956754D01*
X117853371Y-45737609D01*
X117791686Y-45709956D01*
X117730000Y-45682303D01*
X117722743Y-45922330D01*
X117719744Y-46011972D01*
X117716598Y-46077038D01*
X117712701Y-46121974D01*
X117707447Y-46151230D01*
X117700231Y-46169252D01*
X117690450Y-46180489D01*
X117687312Y-46182921D01*
X117639761Y-46201917D01*
X117591697Y-46194400D01*
X117563086Y-46174457D01*
X117551447Y-46160325D01*
X117543391Y-46141780D01*
X117538271Y-46113666D01*
X117535441Y-46070827D01*
X117534256Y-46008105D01*
X117534057Y-45942739D01*
X117534018Y-45860732D01*
X117532614Y-45802684D01*
X117527914Y-45763535D01*
X117517987Y-45738220D01*
X117500903Y-45721677D01*
X117474732Y-45708844D01*
X117439775Y-45695509D01*
X117401596Y-45680993D01*
X117406141Y-45938611D01*
X117407971Y-46031481D01*
X117410112Y-46100111D01*
X117413181Y-46149289D01*
X117417794Y-46183802D01*
X117424568Y-46208438D01*
X117434119Y-46227984D01*
X117445634Y-46245230D01*
X117501190Y-46300320D01*
X117568980Y-46332178D01*
X117642713Y-46339809D01*
X117716093Y-46322220D01*
G36*
X116041115Y-46328038D02*
G01*
X116109145Y-46292267D01*
X116159351Y-46234699D01*
X116177185Y-46197688D01*
X116191063Y-46142118D01*
X116198167Y-46071904D01*
X116198840Y-45995273D01*
X116193427Y-45920448D01*
X116182270Y-45855658D01*
X116165714Y-45809127D01*
X116160626Y-45801113D01*
X116100355Y-45741293D01*
X116028769Y-45705465D01*
X115951092Y-45694980D01*
X115872548Y-45711190D01*
X115850689Y-45720908D01*
X115808122Y-45750857D01*
X115770763Y-45790567D01*
X115767232Y-45795603D01*
X115752881Y-45819876D01*
X115743394Y-45845822D01*
X115737790Y-45879978D01*
X115735086Y-45928881D01*
X115734299Y-45999065D01*
X115734286Y-46014800D01*
X115734322Y-46019808D01*
X115879429Y-46019808D01*
X115880273Y-45953570D01*
X115883596Y-45909614D01*
X115890583Y-45881221D01*
X115902416Y-45861675D01*
X115908457Y-45855143D01*
X115943186Y-45830320D01*
X115976903Y-45831452D01*
X116010995Y-45852984D01*
X116031329Y-45875971D01*
X116043371Y-45909522D01*
X116050134Y-45962431D01*
X116050598Y-45968601D01*
X116051752Y-46064487D01*
X116039688Y-46135701D01*
X116014570Y-46181806D01*
X115976560Y-46202365D01*
X115962992Y-46203486D01*
X115927364Y-46197848D01*
X115902994Y-46178314D01*
X115888093Y-46140958D01*
X115880875Y-46081850D01*
X115879429Y-46019808D01*
X115734322Y-46019808D01*
X115734826Y-46089587D01*
X115737096Y-46141841D01*
X115742068Y-46178051D01*
X115750713Y-46204701D01*
X115764005Y-46228278D01*
X115766943Y-46232662D01*
X115816313Y-46291751D01*
X115870109Y-46326053D01*
X115935602Y-46339669D01*
X115957842Y-46340335D01*
X116041115Y-46328038D01*
G37*
X116041115Y-46328038D02*
X116109145Y-46292267D01*
X116159351Y-46234699D01*
X116177185Y-46197688D01*
X116191063Y-46142118D01*
X116198167Y-46071904D01*
X116198840Y-45995273D01*
X116193427Y-45920448D01*
X116182270Y-45855658D01*
X116165714Y-45809127D01*
X116160626Y-45801113D01*
X116100355Y-45741293D01*
X116028769Y-45705465D01*
X115951092Y-45694980D01*
X115872548Y-45711190D01*
X115850689Y-45720908D01*
X115808122Y-45750857D01*
X115770763Y-45790567D01*
X115767232Y-45795603D01*
X115752881Y-45819876D01*
X115743394Y-45845822D01*
X115737790Y-45879978D01*
X115735086Y-45928881D01*
X115734299Y-45999065D01*
X115734286Y-46014800D01*
X115734322Y-46019808D01*
X115879429Y-46019808D01*
X115880273Y-45953570D01*
X115883596Y-45909614D01*
X115890583Y-45881221D01*
X115902416Y-45861675D01*
X115908457Y-45855143D01*
X115943186Y-45830320D01*
X115976903Y-45831452D01*
X116010995Y-45852984D01*
X116031329Y-45875971D01*
X116043371Y-45909522D01*
X116050134Y-45962431D01*
X116050598Y-45968601D01*
X116051752Y-46064487D01*
X116039688Y-46135701D01*
X116014570Y-46181806D01*
X115976560Y-46202365D01*
X115962992Y-46203486D01*
X115927364Y-46197848D01*
X115902994Y-46178314D01*
X115888093Y-46140958D01*
X115880875Y-46081850D01*
X115879429Y-46019808D01*
X115734322Y-46019808D01*
X115734826Y-46089587D01*
X115737096Y-46141841D01*
X115742068Y-46178051D01*
X115750713Y-46204701D01*
X115764005Y-46228278D01*
X115766943Y-46232662D01*
X115816313Y-46291751D01*
X115870109Y-46326053D01*
X115935602Y-46339669D01*
X115957842Y-46340335D01*
X116041115Y-46328038D01*
G36*
X117168303Y-46318761D02*
G01*
X117225527Y-46280265D01*
X117269749Y-46224665D01*
X117296167Y-46153914D01*
X117301510Y-46101838D01*
X117300903Y-46080107D01*
X117295822Y-46063469D01*
X117281855Y-46048563D01*
X117254589Y-46032027D01*
X117209612Y-46010502D01*
X117142511Y-45980626D01*
X117142171Y-45980476D01*
X117080407Y-45952187D01*
X117029759Y-45927067D01*
X116995404Y-45907821D01*
X116982518Y-45897152D01*
X116982514Y-45897066D01*
X116993872Y-45873834D01*
X117020431Y-45848226D01*
X117050923Y-45829779D01*
X117066370Y-45826114D01*
X117108515Y-45838788D01*
X117144808Y-45870529D01*
X117162517Y-45905428D01*
X117179552Y-45931155D01*
X117212922Y-45960454D01*
X117252149Y-45985765D01*
X117286756Y-45999529D01*
X117293993Y-46000286D01*
X117302139Y-45987840D01*
X117302630Y-45956028D01*
X117296643Y-45913134D01*
X117285357Y-45867442D01*
X117269950Y-45827239D01*
X117269171Y-45825678D01*
X117222804Y-45760938D01*
X117162711Y-45716903D01*
X117094465Y-45695289D01*
X117023638Y-45697815D01*
X116955804Y-45726196D01*
X116952788Y-45728192D01*
X116899427Y-45776552D01*
X116864340Y-45839648D01*
X116844922Y-45922613D01*
X116842316Y-45945922D01*
X116837701Y-46055945D01*
X116843233Y-46107252D01*
X116982514Y-46107252D01*
X116984324Y-46075247D01*
X116994222Y-46065907D01*
X117018898Y-46072895D01*
X117057795Y-46089413D01*
X117101275Y-46110119D01*
X117102356Y-46110667D01*
X117139209Y-46130051D01*
X117154000Y-46142987D01*
X117150353Y-46156549D01*
X117134995Y-46174368D01*
X117095923Y-46200155D01*
X117053846Y-46202050D01*
X117016103Y-46183283D01*
X116990034Y-46147085D01*
X116982514Y-46107252D01*
X116843233Y-46107252D01*
X116847194Y-46143973D01*
X116871550Y-46213788D01*
X116905456Y-46262698D01*
X116966653Y-46312122D01*
X117034063Y-46336641D01*
X117102880Y-46338203D01*
X117168303Y-46318761D01*
G37*
X117168303Y-46318761D02*
X117225527Y-46280265D01*
X117269749Y-46224665D01*
X117296167Y-46153914D01*
X117301510Y-46101838D01*
X117300903Y-46080107D01*
X117295822Y-46063469D01*
X117281855Y-46048563D01*
X117254589Y-46032027D01*
X117209612Y-46010502D01*
X117142511Y-45980626D01*
X117142171Y-45980476D01*
X117080407Y-45952187D01*
X117029759Y-45927067D01*
X116995404Y-45907821D01*
X116982518Y-45897152D01*
X116982514Y-45897066D01*
X116993872Y-45873834D01*
X117020431Y-45848226D01*
X117050923Y-45829779D01*
X117066370Y-45826114D01*
X117108515Y-45838788D01*
X117144808Y-45870529D01*
X117162517Y-45905428D01*
X117179552Y-45931155D01*
X117212922Y-45960454D01*
X117252149Y-45985765D01*
X117286756Y-45999529D01*
X117293993Y-46000286D01*
X117302139Y-45987840D01*
X117302630Y-45956028D01*
X117296643Y-45913134D01*
X117285357Y-45867442D01*
X117269950Y-45827239D01*
X117269171Y-45825678D01*
X117222804Y-45760938D01*
X117162711Y-45716903D01*
X117094465Y-45695289D01*
X117023638Y-45697815D01*
X116955804Y-45726196D01*
X116952788Y-45728192D01*
X116899427Y-45776552D01*
X116864340Y-45839648D01*
X116844922Y-45922613D01*
X116842316Y-45945922D01*
X116837701Y-46055945D01*
X116843233Y-46107252D01*
X116982514Y-46107252D01*
X116984324Y-46075247D01*
X116994222Y-46065907D01*
X117018898Y-46072895D01*
X117057795Y-46089413D01*
X117101275Y-46110119D01*
X117102356Y-46110667D01*
X117139209Y-46130051D01*
X117154000Y-46142987D01*
X117150353Y-46156549D01*
X117134995Y-46174368D01*
X117095923Y-46200155D01*
X117053846Y-46202050D01*
X117016103Y-46183283D01*
X116990034Y-46147085D01*
X116982514Y-46107252D01*
X116843233Y-46107252D01*
X116847194Y-46143973D01*
X116871550Y-46213788D01*
X116905456Y-46262698D01*
X116966653Y-46312122D01*
X117034063Y-46336641D01*
X117102880Y-46338203D01*
X117168303Y-46318761D01*
G36*
X118375886Y-46398711D02*
G01*
X118380139Y-46339387D01*
X118385025Y-46304428D01*
X118391795Y-46289180D01*
X118401702Y-46288985D01*
X118404914Y-46290805D01*
X118447644Y-46303985D01*
X118503227Y-46303215D01*
X118559737Y-46289667D01*
X118595082Y-46272139D01*
X118631321Y-46244139D01*
X118657813Y-46212451D01*
X118675999Y-46172187D01*
X118687322Y-46118457D01*
X118693222Y-46046374D01*
X118695143Y-45951049D01*
X118695177Y-45932763D01*
X118695200Y-45727354D01*
X118649491Y-45711420D01*
X118617027Y-45700580D01*
X118599215Y-45695532D01*
X118598691Y-45695486D01*
X118596937Y-45709172D01*
X118595444Y-45746924D01*
X118594326Y-45803776D01*
X118593697Y-45874766D01*
X118593600Y-45917927D01*
X118593398Y-46003027D01*
X118592358Y-46064019D01*
X118589831Y-46105823D01*
X118585164Y-46133358D01*
X118577707Y-46151544D01*
X118566811Y-46165302D01*
X118560007Y-46171927D01*
X118513272Y-46198625D01*
X118462272Y-46200625D01*
X118416001Y-46178045D01*
X118407444Y-46169893D01*
X118394893Y-46154564D01*
X118386188Y-46136382D01*
X118380631Y-46110091D01*
X118377526Y-46070438D01*
X118376176Y-46012168D01*
X118375886Y-45931827D01*
X118375886Y-45727354D01*
X118330177Y-45711420D01*
X118297713Y-45700580D01*
X118279901Y-45695532D01*
X118279377Y-45695486D01*
X118278037Y-45709377D01*
X118276828Y-45748561D01*
X118275801Y-45809300D01*
X118275002Y-45887859D01*
X118274481Y-45980502D01*
X118274286Y-46083491D01*
X118274286Y-46480658D01*
X118321457Y-46500556D01*
X118368629Y-46520453D01*
X118375886Y-46398711D01*
G37*
X118375886Y-46398711D02*
X118380139Y-46339387D01*
X118385025Y-46304428D01*
X118391795Y-46289180D01*
X118401702Y-46288985D01*
X118404914Y-46290805D01*
X118447644Y-46303985D01*
X118503227Y-46303215D01*
X118559737Y-46289667D01*
X118595082Y-46272139D01*
X118631321Y-46244139D01*
X118657813Y-46212451D01*
X118675999Y-46172187D01*
X118687322Y-46118457D01*
X118693222Y-46046374D01*
X118695143Y-45951049D01*
X118695177Y-45932763D01*
X118695200Y-45727354D01*
X118649491Y-45711420D01*
X118617027Y-45700580D01*
X118599215Y-45695532D01*
X118598691Y-45695486D01*
X118596937Y-45709172D01*
X118595444Y-45746924D01*
X118594326Y-45803776D01*
X118593697Y-45874766D01*
X118593600Y-45917927D01*
X118593398Y-46003027D01*
X118592358Y-46064019D01*
X118589831Y-46105823D01*
X118585164Y-46133358D01*
X118577707Y-46151544D01*
X118566811Y-46165302D01*
X118560007Y-46171927D01*
X118513272Y-46198625D01*
X118462272Y-46200625D01*
X118416001Y-46178045D01*
X118407444Y-46169893D01*
X118394893Y-46154564D01*
X118386188Y-46136382D01*
X118380631Y-46110091D01*
X118377526Y-46070438D01*
X118376176Y-46012168D01*
X118375886Y-45931827D01*
X118375886Y-45727354D01*
X118330177Y-45711420D01*
X118297713Y-45700580D01*
X118279901Y-45695532D01*
X118279377Y-45695486D01*
X118278037Y-45709377D01*
X118276828Y-45748561D01*
X118275801Y-45809300D01*
X118275002Y-45887859D01*
X118274481Y-45980502D01*
X118274286Y-46083491D01*
X118274286Y-46480658D01*
X118321457Y-46500556D01*
X118368629Y-46520453D01*
X118375886Y-46398711D01*
G36*
X119039744Y-46299032D02*
G01*
X119096616Y-46277913D01*
X119097267Y-46277507D01*
X119132440Y-46251620D01*
X119158407Y-46221367D01*
X119176670Y-46181942D01*
X119188732Y-46128538D01*
X119196096Y-46056349D01*
X119200264Y-45960568D01*
X119200629Y-45946922D01*
X119205876Y-45741158D01*
X119161716Y-45718322D01*
X119129763Y-45702890D01*
X119110470Y-45695577D01*
X119109578Y-45695486D01*
X119106239Y-45708978D01*
X119103587Y-45745374D01*
X119101956Y-45798548D01*
X119101600Y-45841607D01*
X119101592Y-45911359D01*
X119098403Y-45955163D01*
X119087288Y-45976056D01*
X119063501Y-45977075D01*
X119022296Y-45961259D01*
X118960086Y-45932185D01*
X118914341Y-45908037D01*
X118890813Y-45887087D01*
X118883896Y-45864253D01*
X118883886Y-45863123D01*
X118895299Y-45823788D01*
X118929092Y-45802538D01*
X118980809Y-45799461D01*
X119018061Y-45799994D01*
X119037703Y-45789265D01*
X119049952Y-45763495D01*
X119057002Y-45730663D01*
X119046842Y-45712034D01*
X119043017Y-45709368D01*
X119007001Y-45698660D01*
X118956566Y-45697144D01*
X118904626Y-45704241D01*
X118867822Y-45717212D01*
X118816938Y-45760415D01*
X118788014Y-45820554D01*
X118782286Y-45867538D01*
X118786657Y-45909918D01*
X118802475Y-45944512D01*
X118833797Y-45975237D01*
X118884678Y-46006010D01*
X118959176Y-46040748D01*
X118963714Y-46042712D01*
X119030821Y-46073713D01*
X119072232Y-46099138D01*
X119089981Y-46121986D01*
X119086107Y-46145255D01*
X119062643Y-46171944D01*
X119055627Y-46178086D01*
X119008630Y-46201900D01*
X118959933Y-46200897D01*
X118917522Y-46177549D01*
X118889384Y-46134325D01*
X118886769Y-46125840D01*
X118861308Y-46084692D01*
X118829001Y-46064872D01*
X118782286Y-46045230D01*
X118782286Y-46096050D01*
X118796496Y-46169918D01*
X118838675Y-46237673D01*
X118860624Y-46260339D01*
X118910517Y-46289431D01*
X118973967Y-46302600D01*
X119039744Y-46299032D01*
G37*
X119039744Y-46299032D02*
X119096616Y-46277913D01*
X119097267Y-46277507D01*
X119132440Y-46251620D01*
X119158407Y-46221367D01*
X119176670Y-46181942D01*
X119188732Y-46128538D01*
X119196096Y-46056349D01*
X119200264Y-45960568D01*
X119200629Y-45946922D01*
X119205876Y-45741158D01*
X119161716Y-45718322D01*
X119129763Y-45702890D01*
X119110470Y-45695577D01*
X119109578Y-45695486D01*
X119106239Y-45708978D01*
X119103587Y-45745374D01*
X119101956Y-45798548D01*
X119101600Y-45841607D01*
X119101592Y-45911359D01*
X119098403Y-45955163D01*
X119087288Y-45976056D01*
X119063501Y-45977075D01*
X119022296Y-45961259D01*
X118960086Y-45932185D01*
X118914341Y-45908037D01*
X118890813Y-45887087D01*
X118883896Y-45864253D01*
X118883886Y-45863123D01*
X118895299Y-45823788D01*
X118929092Y-45802538D01*
X118980809Y-45799461D01*
X119018061Y-45799994D01*
X119037703Y-45789265D01*
X119049952Y-45763495D01*
X119057002Y-45730663D01*
X119046842Y-45712034D01*
X119043017Y-45709368D01*
X119007001Y-45698660D01*
X118956566Y-45697144D01*
X118904626Y-45704241D01*
X118867822Y-45717212D01*
X118816938Y-45760415D01*
X118788014Y-45820554D01*
X118782286Y-45867538D01*
X118786657Y-45909918D01*
X118802475Y-45944512D01*
X118833797Y-45975237D01*
X118884678Y-46006010D01*
X118959176Y-46040748D01*
X118963714Y-46042712D01*
X119030821Y-46073713D01*
X119072232Y-46099138D01*
X119089981Y-46121986D01*
X119086107Y-46145255D01*
X119062643Y-46171944D01*
X119055627Y-46178086D01*
X119008630Y-46201900D01*
X118959933Y-46200897D01*
X118917522Y-46177549D01*
X118889384Y-46134325D01*
X118886769Y-46125840D01*
X118861308Y-46084692D01*
X118829001Y-46064872D01*
X118782286Y-46045230D01*
X118782286Y-46096050D01*
X118796496Y-46169918D01*
X118838675Y-46237673D01*
X118860624Y-46260339D01*
X118910517Y-46289431D01*
X118973967Y-46302600D01*
X119039744Y-46299032D01*
G36*
X119529926Y-46300245D02*
G01*
X119595858Y-46275916D01*
X119649273Y-46232883D01*
X119670164Y-46202591D01*
X119692939Y-46147006D01*
X119692466Y-46106814D01*
X119668562Y-46079783D01*
X119659717Y-46075187D01*
X119621530Y-46060856D01*
X119602028Y-46064528D01*
X119595422Y-46088593D01*
X119595086Y-46101886D01*
X119582992Y-46150790D01*
X119551471Y-46185001D01*
X119507659Y-46201524D01*
X119458695Y-46197366D01*
X119418894Y-46175773D01*
X119405450Y-46163456D01*
X119395921Y-46148513D01*
X119389485Y-46125925D01*
X119385317Y-46090672D01*
X119382597Y-46037734D01*
X119380502Y-45962093D01*
X119379960Y-45938143D01*
X119377981Y-45856210D01*
X119375731Y-45798545D01*
X119372357Y-45760392D01*
X119367006Y-45736996D01*
X119358824Y-45723602D01*
X119346959Y-45715455D01*
X119339362Y-45711856D01*
X119307102Y-45699548D01*
X119288111Y-45695486D01*
X119281836Y-45709052D01*
X119278006Y-45750066D01*
X119276600Y-45819001D01*
X119277598Y-45916331D01*
X119277908Y-45931343D01*
X119280101Y-46020141D01*
X119282693Y-46084981D01*
X119286382Y-46130933D01*
X119291864Y-46163065D01*
X119299835Y-46186447D01*
X119310993Y-46206148D01*
X119316830Y-46214590D01*
X119350296Y-46251943D01*
X119387727Y-46280997D01*
X119392309Y-46283533D01*
X119459426Y-46303557D01*
X119529926Y-46300245D01*
G37*
X119529926Y-46300245D02*
X119595858Y-46275916D01*
X119649273Y-46232883D01*
X119670164Y-46202591D01*
X119692939Y-46147006D01*
X119692466Y-46106814D01*
X119668562Y-46079783D01*
X119659717Y-46075187D01*
X119621530Y-46060856D01*
X119602028Y-46064528D01*
X119595422Y-46088593D01*
X119595086Y-46101886D01*
X119582992Y-46150790D01*
X119551471Y-46185001D01*
X119507659Y-46201524D01*
X119458695Y-46197366D01*
X119418894Y-46175773D01*
X119405450Y-46163456D01*
X119395921Y-46148513D01*
X119389485Y-46125925D01*
X119385317Y-46090672D01*
X119382597Y-46037734D01*
X119380502Y-45962093D01*
X119379960Y-45938143D01*
X119377981Y-45856210D01*
X119375731Y-45798545D01*
X119372357Y-45760392D01*
X119367006Y-45736996D01*
X119358824Y-45723602D01*
X119346959Y-45715455D01*
X119339362Y-45711856D01*
X119307102Y-45699548D01*
X119288111Y-45695486D01*
X119281836Y-45709052D01*
X119278006Y-45750066D01*
X119276600Y-45819001D01*
X119277598Y-45916331D01*
X119277908Y-45931343D01*
X119280101Y-46020141D01*
X119282693Y-46084981D01*
X119286382Y-46130933D01*
X119291864Y-46163065D01*
X119299835Y-46186447D01*
X119310993Y-46206148D01*
X119316830Y-46214590D01*
X119350296Y-46251943D01*
X119387727Y-46280997D01*
X119392309Y-46283533D01*
X119459426Y-46303557D01*
X119529926Y-46300245D01*
G36*
X120190117Y-46184642D02*
G01*
X120189933Y-46076163D01*
X120189219Y-45992713D01*
X120187675Y-45930296D01*
X120185001Y-45884915D01*
X120180894Y-45852571D01*
X120175055Y-45829267D01*
X120167182Y-45811005D01*
X120161221Y-45800582D01*
X120111855Y-45744055D01*
X120049264Y-45708623D01*
X119980013Y-45695910D01*
X119910668Y-45707537D01*
X119869375Y-45728432D01*
X119826025Y-45764578D01*
X119796481Y-45808724D01*
X119778655Y-45866538D01*
X119770463Y-45943687D01*
X119769302Y-46000286D01*
X119769458Y-46004353D01*
X119870857Y-46004353D01*
X119871476Y-45939450D01*
X119874314Y-45896486D01*
X119880840Y-45868378D01*
X119892523Y-45848047D01*
X119906483Y-45832712D01*
X119953365Y-45803110D01*
X120003701Y-45800581D01*
X120051276Y-45825295D01*
X120054979Y-45828644D01*
X120070783Y-45846065D01*
X120080693Y-45866791D01*
X120086058Y-45897638D01*
X120088228Y-45945423D01*
X120088571Y-45998252D01*
X120087827Y-46064619D01*
X120084748Y-46108894D01*
X120078061Y-46137991D01*
X120066496Y-46158827D01*
X120057013Y-46169893D01*
X120012960Y-46197802D01*
X119962224Y-46201157D01*
X119913796Y-46179841D01*
X119904450Y-46171927D01*
X119888540Y-46154353D01*
X119878610Y-46133413D01*
X119873278Y-46102218D01*
X119871163Y-46053878D01*
X119870857Y-46004353D01*
X119769458Y-46004353D01*
X119772810Y-46091432D01*
X119784726Y-46159914D01*
X119807135Y-46211400D01*
X119842124Y-46251557D01*
X119869375Y-46272139D01*
X119918907Y-46294375D01*
X119976316Y-46304696D01*
X120029682Y-46301933D01*
X120059543Y-46290788D01*
X120071261Y-46287617D01*
X120079037Y-46299443D01*
X120084465Y-46331134D01*
X120088571Y-46379407D01*
X120093067Y-46433171D01*
X120099313Y-46465518D01*
X120110676Y-46484015D01*
X120130528Y-46496230D01*
X120143000Y-46501638D01*
X120190171Y-46521399D01*
X120190117Y-46184642D01*
G37*
X120190117Y-46184642D02*
X120189933Y-46076163D01*
X120189219Y-45992713D01*
X120187675Y-45930296D01*
X120185001Y-45884915D01*
X120180894Y-45852571D01*
X120175055Y-45829267D01*
X120167182Y-45811005D01*
X120161221Y-45800582D01*
X120111855Y-45744055D01*
X120049264Y-45708623D01*
X119980013Y-45695910D01*
X119910668Y-45707537D01*
X119869375Y-45728432D01*
X119826025Y-45764578D01*
X119796481Y-45808724D01*
X119778655Y-45866538D01*
X119770463Y-45943687D01*
X119769302Y-46000286D01*
X119769458Y-46004353D01*
X119870857Y-46004353D01*
X119871476Y-45939450D01*
X119874314Y-45896486D01*
X119880840Y-45868378D01*
X119892523Y-45848047D01*
X119906483Y-45832712D01*
X119953365Y-45803110D01*
X120003701Y-45800581D01*
X120051276Y-45825295D01*
X120054979Y-45828644D01*
X120070783Y-45846065D01*
X120080693Y-45866791D01*
X120086058Y-45897638D01*
X120088228Y-45945423D01*
X120088571Y-45998252D01*
X120087827Y-46064619D01*
X120084748Y-46108894D01*
X120078061Y-46137991D01*
X120066496Y-46158827D01*
X120057013Y-46169893D01*
X120012960Y-46197802D01*
X119962224Y-46201157D01*
X119913796Y-46179841D01*
X119904450Y-46171927D01*
X119888540Y-46154353D01*
X119878610Y-46133413D01*
X119873278Y-46102218D01*
X119871163Y-46053878D01*
X119870857Y-46004353D01*
X119769458Y-46004353D01*
X119772810Y-46091432D01*
X119784726Y-46159914D01*
X119807135Y-46211400D01*
X119842124Y-46251557D01*
X119869375Y-46272139D01*
X119918907Y-46294375D01*
X119976316Y-46304696D01*
X120029682Y-46301933D01*
X120059543Y-46290788D01*
X120071261Y-46287617D01*
X120079037Y-46299443D01*
X120084465Y-46331134D01*
X120088571Y-46379407D01*
X120093067Y-46433171D01*
X120099313Y-46465518D01*
X120110676Y-46484015D01*
X120130528Y-46496230D01*
X120143000Y-46501638D01*
X120190171Y-46521399D01*
X120190117Y-46184642D01*
G36*
X120779833Y-46291337D02*
G01*
X120782048Y-46253150D01*
X120783784Y-46195114D01*
X120784899Y-46121820D01*
X120785257Y-46044945D01*
X120785257Y-45784804D01*
X120739326Y-45738873D01*
X120707675Y-45710571D01*
X120679890Y-45699107D01*
X120641915Y-45699832D01*
X120626840Y-45701679D01*
X120579726Y-45707052D01*
X120540756Y-45710131D01*
X120531257Y-45710415D01*
X120499233Y-45708555D01*
X120453432Y-45703886D01*
X120435674Y-45701679D01*
X120392057Y-45698265D01*
X120362745Y-45705680D01*
X120333680Y-45728573D01*
X120323188Y-45738873D01*
X120277257Y-45784804D01*
X120277257Y-46271398D01*
X120314226Y-46288242D01*
X120346059Y-46300718D01*
X120364683Y-46305086D01*
X120369458Y-46291282D01*
X120373921Y-46252714D01*
X120377775Y-46193644D01*
X120380722Y-46118337D01*
X120382143Y-46054714D01*
X120386114Y-45804343D01*
X120420759Y-45799444D01*
X120452268Y-45802869D01*
X120467708Y-45813959D01*
X120472023Y-45834692D01*
X120475708Y-45878855D01*
X120478469Y-45940854D01*
X120480012Y-46015091D01*
X120480235Y-46053294D01*
X120480457Y-46273217D01*
X120526166Y-46289151D01*
X120558518Y-46299985D01*
X120576115Y-46305038D01*
X120576623Y-46305086D01*
X120578388Y-46291352D01*
X120580329Y-46253270D01*
X120582282Y-46195518D01*
X120584084Y-46122773D01*
X120585343Y-46054714D01*
X120589314Y-45804343D01*
X120676400Y-45804343D01*
X120680396Y-46032760D01*
X120684392Y-46261178D01*
X120726847Y-46283132D01*
X120758192Y-46298207D01*
X120776744Y-46305049D01*
X120777279Y-46305086D01*
X120779833Y-46291337D01*
G37*
X120779833Y-46291337D02*
X120782048Y-46253150D01*
X120783784Y-46195114D01*
X120784899Y-46121820D01*
X120785257Y-46044945D01*
X120785257Y-45784804D01*
X120739326Y-45738873D01*
X120707675Y-45710571D01*
X120679890Y-45699107D01*
X120641915Y-45699832D01*
X120626840Y-45701679D01*
X120579726Y-45707052D01*
X120540756Y-45710131D01*
X120531257Y-45710415D01*
X120499233Y-45708555D01*
X120453432Y-45703886D01*
X120435674Y-45701679D01*
X120392057Y-45698265D01*
X120362745Y-45705680D01*
X120333680Y-45728573D01*
X120323188Y-45738873D01*
X120277257Y-45784804D01*
X120277257Y-46271398D01*
X120314226Y-46288242D01*
X120346059Y-46300718D01*
X120364683Y-46305086D01*
X120369458Y-46291282D01*
X120373921Y-46252714D01*
X120377775Y-46193644D01*
X120380722Y-46118337D01*
X120382143Y-46054714D01*
X120386114Y-45804343D01*
X120420759Y-45799444D01*
X120452268Y-45802869D01*
X120467708Y-45813959D01*
X120472023Y-45834692D01*
X120475708Y-45878855D01*
X120478469Y-45940854D01*
X120480012Y-46015091D01*
X120480235Y-46053294D01*
X120480457Y-46273217D01*
X120526166Y-46289151D01*
X120558518Y-46299985D01*
X120576115Y-46305038D01*
X120576623Y-46305086D01*
X120578388Y-46291352D01*
X120580329Y-46253270D01*
X120582282Y-46195518D01*
X120584084Y-46122773D01*
X120585343Y-46054714D01*
X120589314Y-45804343D01*
X120676400Y-45804343D01*
X120680396Y-46032760D01*
X120684392Y-46261178D01*
X120726847Y-46283132D01*
X120758192Y-46298207D01*
X120776744Y-46305049D01*
X120777279Y-46305086D01*
X120779833Y-46291337D01*
G36*
X121144876Y-46293665D02*
G01*
X121186667Y-46274656D01*
X121219469Y-46251622D01*
X121243503Y-46225867D01*
X121260097Y-46192642D01*
X121270577Y-46147200D01*
X121276271Y-46084793D01*
X121278507Y-46000673D01*
X121278743Y-45945279D01*
X121278743Y-45729174D01*
X121241774Y-45712330D01*
X121212656Y-45700019D01*
X121198231Y-45695486D01*
X121195472Y-45708975D01*
X121193282Y-45745347D01*
X121191942Y-45798458D01*
X121191657Y-45840628D01*
X121190434Y-45901553D01*
X121187136Y-45949885D01*
X121182321Y-45979482D01*
X121178496Y-45985771D01*
X121152783Y-45979348D01*
X121112418Y-45962875D01*
X121065679Y-45940542D01*
X121020845Y-45916543D01*
X120986193Y-45895070D01*
X120970002Y-45880315D01*
X120969938Y-45880155D01*
X120971330Y-45852848D01*
X120983818Y-45826781D01*
X121005743Y-45805608D01*
X121037743Y-45798526D01*
X121065092Y-45799351D01*
X121103826Y-45799958D01*
X121124158Y-45790884D01*
X121136369Y-45766908D01*
X121137909Y-45762387D01*
X121143203Y-45728194D01*
X121129047Y-45707432D01*
X121092148Y-45697538D01*
X121052289Y-45695708D01*
X120980562Y-45709273D01*
X120943432Y-45728645D01*
X120897576Y-45774155D01*
X120873256Y-45830017D01*
X120871073Y-45889043D01*
X120891629Y-45944047D01*
X120922549Y-45978514D01*
X120953420Y-45997811D01*
X121001942Y-46022241D01*
X121058485Y-46047015D01*
X121067910Y-46050801D01*
X121130019Y-46078209D01*
X121165822Y-46102366D01*
X121177337Y-46126381D01*
X121166580Y-46153365D01*
X121148114Y-46174457D01*
X121104469Y-46200428D01*
X121056446Y-46202376D01*
X121012406Y-46182363D01*
X120980709Y-46142449D01*
X120976549Y-46132152D01*
X120952327Y-46094276D01*
X120916965Y-46066158D01*
X120872343Y-46043083D01*
X120872343Y-46108515D01*
X120874969Y-46148494D01*
X120886230Y-46180003D01*
X120911199Y-46213622D01*
X120935169Y-46239516D01*
X120972441Y-46276183D01*
X121001401Y-46295879D01*
X121032505Y-46303780D01*
X121067713Y-46305086D01*
X121144876Y-46293665D01*
G37*
X121144876Y-46293665D02*
X121186667Y-46274656D01*
X121219469Y-46251622D01*
X121243503Y-46225867D01*
X121260097Y-46192642D01*
X121270577Y-46147200D01*
X121276271Y-46084793D01*
X121278507Y-46000673D01*
X121278743Y-45945279D01*
X121278743Y-45729174D01*
X121241774Y-45712330D01*
X121212656Y-45700019D01*
X121198231Y-45695486D01*
X121195472Y-45708975D01*
X121193282Y-45745347D01*
X121191942Y-45798458D01*
X121191657Y-45840628D01*
X121190434Y-45901553D01*
X121187136Y-45949885D01*
X121182321Y-45979482D01*
X121178496Y-45985771D01*
X121152783Y-45979348D01*
X121112418Y-45962875D01*
X121065679Y-45940542D01*
X121020845Y-45916543D01*
X120986193Y-45895070D01*
X120970002Y-45880315D01*
X120969938Y-45880155D01*
X120971330Y-45852848D01*
X120983818Y-45826781D01*
X121005743Y-45805608D01*
X121037743Y-45798526D01*
X121065092Y-45799351D01*
X121103826Y-45799958D01*
X121124158Y-45790884D01*
X121136369Y-45766908D01*
X121137909Y-45762387D01*
X121143203Y-45728194D01*
X121129047Y-45707432D01*
X121092148Y-45697538D01*
X121052289Y-45695708D01*
X120980562Y-45709273D01*
X120943432Y-45728645D01*
X120897576Y-45774155D01*
X120873256Y-45830017D01*
X120871073Y-45889043D01*
X120891629Y-45944047D01*
X120922549Y-45978514D01*
X120953420Y-45997811D01*
X121001942Y-46022241D01*
X121058485Y-46047015D01*
X121067910Y-46050801D01*
X121130019Y-46078209D01*
X121165822Y-46102366D01*
X121177337Y-46126381D01*
X121166580Y-46153365D01*
X121148114Y-46174457D01*
X121104469Y-46200428D01*
X121056446Y-46202376D01*
X121012406Y-46182363D01*
X120980709Y-46142449D01*
X120976549Y-46132152D01*
X120952327Y-46094276D01*
X120916965Y-46066158D01*
X120872343Y-46043083D01*
X120872343Y-46108515D01*
X120874969Y-46148494D01*
X120886230Y-46180003D01*
X120911199Y-46213622D01*
X120935169Y-46239516D01*
X120972441Y-46276183D01*
X121001401Y-46295879D01*
X121032505Y-46303780D01*
X121067713Y-46305086D01*
X121144876Y-46293665D01*
G36*
X121652600Y-46291248D02*
G01*
X121669948Y-46283666D01*
X121711356Y-46250872D01*
X121746765Y-46203453D01*
X121768664Y-46152849D01*
X121772229Y-46127902D01*
X121760279Y-46093073D01*
X121734067Y-46074643D01*
X121705964Y-46063484D01*
X121693095Y-46061428D01*
X121686829Y-46076351D01*
X121674456Y-46108825D01*
X121669028Y-46123498D01*
X121638590Y-46174256D01*
X121594520Y-46199573D01*
X121538010Y-46198794D01*
X121533825Y-46197797D01*
X121503655Y-46183493D01*
X121481476Y-46155607D01*
X121466327Y-46110713D01*
X121457250Y-46045385D01*
X121453286Y-45956196D01*
X121452914Y-45908739D01*
X121452730Y-45833929D01*
X121451522Y-45782931D01*
X121448309Y-45750529D01*
X121442109Y-45731505D01*
X121431940Y-45720644D01*
X121416819Y-45712728D01*
X121415946Y-45712330D01*
X121386828Y-45700019D01*
X121372403Y-45695486D01*
X121370186Y-45709191D01*
X121368289Y-45747075D01*
X121366847Y-45804285D01*
X121365998Y-45875973D01*
X121365829Y-45928435D01*
X121366692Y-46029953D01*
X121370070Y-46106968D01*
X121377142Y-46163977D01*
X121389088Y-46205474D01*
X121407090Y-46235957D01*
X121432327Y-46259920D01*
X121457247Y-46276645D01*
X121517171Y-46298903D01*
X121586911Y-46303924D01*
X121652600Y-46291248D01*
G37*
X121652600Y-46291248D02*
X121669948Y-46283666D01*
X121711356Y-46250872D01*
X121746765Y-46203453D01*
X121768664Y-46152849D01*
X121772229Y-46127902D01*
X121760279Y-46093073D01*
X121734067Y-46074643D01*
X121705964Y-46063484D01*
X121693095Y-46061428D01*
X121686829Y-46076351D01*
X121674456Y-46108825D01*
X121669028Y-46123498D01*
X121638590Y-46174256D01*
X121594520Y-46199573D01*
X121538010Y-46198794D01*
X121533825Y-46197797D01*
X121503655Y-46183493D01*
X121481476Y-46155607D01*
X121466327Y-46110713D01*
X121457250Y-46045385D01*
X121453286Y-45956196D01*
X121452914Y-45908739D01*
X121452730Y-45833929D01*
X121451522Y-45782931D01*
X121448309Y-45750529D01*
X121442109Y-45731505D01*
X121431940Y-45720644D01*
X121416819Y-45712728D01*
X121415946Y-45712330D01*
X121386828Y-45700019D01*
X121372403Y-45695486D01*
X121370186Y-45709191D01*
X121368289Y-45747075D01*
X121366847Y-45804285D01*
X121365998Y-45875973D01*
X121365829Y-45928435D01*
X121366692Y-46029953D01*
X121370070Y-46106968D01*
X121377142Y-46163977D01*
X121389088Y-46205474D01*
X121407090Y-46235957D01*
X121432327Y-46259920D01*
X121457247Y-46276645D01*
X121517171Y-46298903D01*
X121586911Y-46303924D01*
X121652600Y-46291248D01*
G36*
X122153595Y-46283034D02*
G01*
X122211021Y-46245503D01*
X122238719Y-46211904D01*
X122260662Y-46150936D01*
X122262405Y-46102692D01*
X122258457Y-46038184D01*
X122109686Y-45973066D01*
X122037349Y-45939798D01*
X121990084Y-45913036D01*
X121965507Y-45889856D01*
X121961237Y-45867333D01*
X121974889Y-45842545D01*
X121989943Y-45826114D01*
X122033746Y-45799765D01*
X122081389Y-45797919D01*
X122125145Y-45818454D01*
X122157289Y-45859248D01*
X122163038Y-45873653D01*
X122190576Y-45918644D01*
X122222258Y-45937818D01*
X122265714Y-45954221D01*
X122265714Y-45892034D01*
X122261872Y-45849717D01*
X122246823Y-45814031D01*
X122215280Y-45773057D01*
X122210592Y-45767733D01*
X122175506Y-45731280D01*
X122145347Y-45711717D01*
X122107615Y-45702717D01*
X122076335Y-45699770D01*
X122020385Y-45699035D01*
X121980555Y-45708340D01*
X121955708Y-45722154D01*
X121916656Y-45752533D01*
X121889625Y-45785387D01*
X121872517Y-45826706D01*
X121863238Y-45882479D01*
X121859693Y-45958695D01*
X121859410Y-45997378D01*
X121860372Y-46043753D01*
X121948007Y-46043753D01*
X121949023Y-46018874D01*
X121951556Y-46014800D01*
X121968274Y-46020335D01*
X122004249Y-46034983D01*
X122052331Y-46055810D01*
X122062386Y-46060286D01*
X122123152Y-46091186D01*
X122156632Y-46118343D01*
X122163990Y-46143780D01*
X122146391Y-46169519D01*
X122131856Y-46180891D01*
X122079410Y-46203636D01*
X122030322Y-46199878D01*
X121989227Y-46172116D01*
X121960758Y-46122848D01*
X121951631Y-46083743D01*
X121948007Y-46043753D01*
X121860372Y-46043753D01*
X121861285Y-46087751D01*
X121868196Y-46154616D01*
X121881884Y-46203305D01*
X121904096Y-46239151D01*
X121936574Y-46267487D01*
X121950733Y-46276645D01*
X122015053Y-46300493D01*
X122085473Y-46301994D01*
X122153595Y-46283034D01*
G37*
X122153595Y-46283034D02*
X122211021Y-46245503D01*
X122238719Y-46211904D01*
X122260662Y-46150936D01*
X122262405Y-46102692D01*
X122258457Y-46038184D01*
X122109686Y-45973066D01*
X122037349Y-45939798D01*
X121990084Y-45913036D01*
X121965507Y-45889856D01*
X121961237Y-45867333D01*
X121974889Y-45842545D01*
X121989943Y-45826114D01*
X122033746Y-45799765D01*
X122081389Y-45797919D01*
X122125145Y-45818454D01*
X122157289Y-45859248D01*
X122163038Y-45873653D01*
X122190576Y-45918644D01*
X122222258Y-45937818D01*
X122265714Y-45954221D01*
X122265714Y-45892034D01*
X122261872Y-45849717D01*
X122246823Y-45814031D01*
X122215280Y-45773057D01*
X122210592Y-45767733D01*
X122175506Y-45731280D01*
X122145347Y-45711717D01*
X122107615Y-45702717D01*
X122076335Y-45699770D01*
X122020385Y-45699035D01*
X121980555Y-45708340D01*
X121955708Y-45722154D01*
X121916656Y-45752533D01*
X121889625Y-45785387D01*
X121872517Y-45826706D01*
X121863238Y-45882479D01*
X121859693Y-45958695D01*
X121859410Y-45997378D01*
X121860372Y-46043753D01*
X121948007Y-46043753D01*
X121949023Y-46018874D01*
X121951556Y-46014800D01*
X121968274Y-46020335D01*
X122004249Y-46034983D01*
X122052331Y-46055810D01*
X122062386Y-46060286D01*
X122123152Y-46091186D01*
X122156632Y-46118343D01*
X122163990Y-46143780D01*
X122146391Y-46169519D01*
X122131856Y-46180891D01*
X122079410Y-46203636D01*
X122030322Y-46199878D01*
X121989227Y-46172116D01*
X121960758Y-46122848D01*
X121951631Y-46083743D01*
X121948007Y-46043753D01*
X121860372Y-46043753D01*
X121861285Y-46087751D01*
X121868196Y-46154616D01*
X121881884Y-46203305D01*
X121904096Y-46239151D01*
X121936574Y-46267487D01*
X121950733Y-46276645D01*
X122015053Y-46300493D01*
X122085473Y-46301994D01*
X122153595Y-46283034D01*
G36*
X119103910Y-51007652D02*
G01*
X119182454Y-51007222D01*
X119239298Y-51006058D01*
X119278105Y-51003793D01*
X119302538Y-51000060D01*
X119316262Y-50994494D01*
X119322940Y-50986727D01*
X119326236Y-50976395D01*
X119326556Y-50975057D01*
X119331562Y-50950921D01*
X119340829Y-50903299D01*
X119353392Y-50837259D01*
X119368287Y-50757872D01*
X119384551Y-50670204D01*
X119385119Y-50667125D01*
X119401410Y-50581211D01*
X119416652Y-50505304D01*
X119429861Y-50443955D01*
X119440054Y-50401718D01*
X119446248Y-50383145D01*
X119446543Y-50382816D01*
X119464788Y-50373747D01*
X119502405Y-50358633D01*
X119551271Y-50340738D01*
X119551543Y-50340642D01*
X119613093Y-50317507D01*
X119685657Y-50288035D01*
X119754057Y-50258403D01*
X119757294Y-50256938D01*
X119868702Y-50206374D01*
X120115399Y-50374840D01*
X120191077Y-50426197D01*
X120259631Y-50472111D01*
X120317088Y-50509970D01*
X120359476Y-50537163D01*
X120382825Y-50551079D01*
X120385042Y-50552111D01*
X120402010Y-50547516D01*
X120433701Y-50525345D01*
X120481352Y-50484553D01*
X120546198Y-50424095D01*
X120612397Y-50359773D01*
X120676214Y-50296388D01*
X120733329Y-50238549D01*
X120780305Y-50189825D01*
X120813703Y-50153790D01*
X120830085Y-50134016D01*
X120830694Y-50132998D01*
X120832505Y-50119428D01*
X120825683Y-50097267D01*
X120808540Y-50063522D01*
X120779393Y-50015200D01*
X120736555Y-49949308D01*
X120679448Y-49864483D01*
X120628766Y-49789823D01*
X120583461Y-49722860D01*
X120546150Y-49667484D01*
X120519452Y-49627580D01*
X120505985Y-49607038D01*
X120505137Y-49605644D01*
X120506781Y-49585962D01*
X120519245Y-49547707D01*
X120540048Y-49498111D01*
X120547462Y-49482272D01*
X120579814Y-49411710D01*
X120614328Y-49331647D01*
X120642365Y-49262371D01*
X120662568Y-49210955D01*
X120678615Y-49171881D01*
X120687888Y-49151459D01*
X120689041Y-49149886D01*
X120706096Y-49147279D01*
X120746298Y-49140137D01*
X120804302Y-49129477D01*
X120874763Y-49116315D01*
X120952335Y-49101667D01*
X121031672Y-49086551D01*
X121107431Y-49071982D01*
X121174264Y-49058978D01*
X121226828Y-49048555D01*
X121259776Y-49041730D01*
X121267857Y-49039801D01*
X121276205Y-49035038D01*
X121282506Y-49024282D01*
X121287045Y-49003902D01*
X121290104Y-48970266D01*
X121291967Y-48919745D01*
X121292918Y-48848708D01*
X121293240Y-48753524D01*
X121293257Y-48714508D01*
X121293257Y-48397201D01*
X121217057Y-48382161D01*
X121174663Y-48374005D01*
X121111400Y-48362101D01*
X121034962Y-48347884D01*
X120953043Y-48332790D01*
X120930400Y-48328645D01*
X120854806Y-48313947D01*
X120788953Y-48299495D01*
X120738366Y-48286625D01*
X120708574Y-48276678D01*
X120703612Y-48273713D01*
X120691426Y-48252717D01*
X120673953Y-48212033D01*
X120654577Y-48159678D01*
X120650734Y-48148400D01*
X120625339Y-48078477D01*
X120593817Y-47999582D01*
X120562969Y-47928734D01*
X120562817Y-47928405D01*
X120511447Y-47817267D01*
X120680399Y-47568747D01*
X120849352Y-47320228D01*
X120632429Y-47102942D01*
X120566819Y-47038274D01*
X120506979Y-46981267D01*
X120456267Y-46934967D01*
X120418046Y-46902416D01*
X120395675Y-46886657D01*
X120392466Y-46885657D01*
X120373626Y-46893531D01*
X120335180Y-46915422D01*
X120281330Y-46948733D01*
X120216276Y-46990869D01*
X120145940Y-47038057D01*
X120074555Y-47086190D01*
X120010908Y-47128072D01*
X119959041Y-47161129D01*
X119922995Y-47182782D01*
X119906867Y-47190457D01*
X119887189Y-47183963D01*
X119849875Y-47166850D01*
X119802621Y-47142674D01*
X119797612Y-47139987D01*
X119733977Y-47108073D01*
X119690341Y-47092421D01*
X119663202Y-47092255D01*
X119649057Y-47106796D01*
X119648975Y-47107000D01*
X119641905Y-47124221D01*
X119625042Y-47165101D01*
X119599695Y-47226475D01*
X119567171Y-47305181D01*
X119528778Y-47398053D01*
X119485822Y-47501928D01*
X119444222Y-47602498D01*
X119398504Y-47713484D01*
X119356526Y-47816297D01*
X119319548Y-47907785D01*
X119288827Y-47984799D01*
X119265622Y-48044185D01*
X119251190Y-48082791D01*
X119246743Y-48097200D01*
X119257896Y-48113728D01*
X119287069Y-48140070D01*
X119325971Y-48169113D01*
X119436757Y-48260961D01*
X119523351Y-48366241D01*
X119584716Y-48482734D01*
X119619815Y-48608224D01*
X119627608Y-48740493D01*
X119621943Y-48801543D01*
X119591078Y-48928205D01*
X119537920Y-49040059D01*
X119465767Y-49135999D01*
X119377917Y-49214924D01*
X119277665Y-49275730D01*
X119168310Y-49317313D01*
X119053147Y-49338572D01*
X118935475Y-49338401D01*
X118818590Y-49315699D01*
X118705789Y-49269362D01*
X118600369Y-49198287D01*
X118556368Y-49158089D01*
X118471979Y-49054871D01*
X118413222Y-48942075D01*
X118379704Y-48822990D01*
X118371035Y-48700905D01*
X118386823Y-48579107D01*
X118426678Y-48460884D01*
X118490207Y-48349525D01*
X118577021Y-48248316D01*
X118674029Y-48169113D01*
X118714437Y-48138838D01*
X118742982Y-48112781D01*
X118753257Y-48097175D01*
X118747877Y-48080157D01*
X118732575Y-48039500D01*
X118708612Y-47978358D01*
X118677244Y-47899881D01*
X118639732Y-47807220D01*
X118597333Y-47703528D01*
X118555663Y-47602474D01*
X118509690Y-47491393D01*
X118467107Y-47388459D01*
X118429221Y-47296835D01*
X118397340Y-47219684D01*
X118372771Y-47160169D01*
X118356820Y-47121456D01*
X118350910Y-47107000D01*
X118336948Y-47092315D01*
X118309940Y-47092358D01*
X118266413Y-47107901D01*
X118202890Y-47139716D01*
X118202388Y-47139987D01*
X118154560Y-47164677D01*
X118115897Y-47182662D01*
X118094095Y-47190386D01*
X118093133Y-47190457D01*
X118076721Y-47182622D01*
X118040487Y-47160835D01*
X117988474Y-47127672D01*
X117924725Y-47085709D01*
X117854060Y-47038057D01*
X117782116Y-46989809D01*
X117717274Y-46947849D01*
X117663735Y-46914773D01*
X117625697Y-46893179D01*
X117607533Y-46885657D01*
X117590808Y-46895543D01*
X117557180Y-46923174D01*
X117510010Y-46965505D01*
X117452658Y-47019495D01*
X117388484Y-47082101D01*
X117367497Y-47103017D01*
X117150499Y-47320377D01*
X117315668Y-47562780D01*
X117365864Y-47637219D01*
X117409919Y-47704028D01*
X117445362Y-47759335D01*
X117469719Y-47799271D01*
X117480522Y-47819964D01*
X117480838Y-47821437D01*
X117475143Y-47840942D01*
X117459826Y-47880178D01*
X117437537Y-47932570D01*
X117421893Y-47967645D01*
X117392641Y-48034799D01*
X117365094Y-48102642D01*
X117343737Y-48159966D01*
X117337935Y-48177428D01*
X117321452Y-48224062D01*
X117305340Y-48260095D01*
X117296490Y-48273713D01*
X117276960Y-48282048D01*
X117234334Y-48293863D01*
X117174145Y-48307819D01*
X117101922Y-48322578D01*
X117069600Y-48328645D01*
X116987522Y-48343727D01*
X116908795Y-48358331D01*
X116841109Y-48371020D01*
X116792160Y-48380358D01*
X116782943Y-48382161D01*
X116706743Y-48397201D01*
X116706743Y-48714508D01*
X116706914Y-48818846D01*
X116707616Y-48897787D01*
X116709134Y-48954962D01*
X116711749Y-48994001D01*
X116715746Y-49018535D01*
X116721409Y-49032195D01*
X116729020Y-49038611D01*
X116732143Y-49039801D01*
X116750978Y-49044020D01*
X116792588Y-49052438D01*
X116851630Y-49064039D01*
X116922757Y-49077805D01*
X117000625Y-49092720D01*
X117079887Y-49107768D01*
X117155198Y-49121931D01*
X117221213Y-49134194D01*
X117272587Y-49143539D01*
X117303975Y-49148950D01*
X117310959Y-49149886D01*
X117317285Y-49162404D01*
X117331290Y-49195754D01*
X117350355Y-49243623D01*
X117357634Y-49262371D01*
X117386996Y-49334805D01*
X117421571Y-49414830D01*
X117452537Y-49482272D01*
X117475323Y-49533841D01*
X117490482Y-49576215D01*
X117495542Y-49602166D01*
X117494736Y-49605644D01*
X117484041Y-49622064D01*
X117459620Y-49658583D01*
X117424095Y-49711313D01*
X117380087Y-49776365D01*
X117330217Y-49849849D01*
X117320356Y-49864355D01*
X117262492Y-49950296D01*
X117219956Y-50015739D01*
X117191054Y-50063696D01*
X117174090Y-50097180D01*
X117167367Y-50119205D01*
X117169190Y-50132783D01*
X117169236Y-50132869D01*
X117183586Y-50150703D01*
X117215323Y-50185183D01*
X117261010Y-50232732D01*
X117317204Y-50289778D01*
X117380468Y-50352745D01*
X117387602Y-50359773D01*
X117467330Y-50436980D01*
X117528857Y-50493670D01*
X117573421Y-50530890D01*
X117602257Y-50549685D01*
X117614958Y-50552111D01*
X117633494Y-50541529D01*
X117671961Y-50517084D01*
X117726386Y-50481388D01*
X117792798Y-50437053D01*
X117867225Y-50386689D01*
X117884601Y-50374840D01*
X118131297Y-50206374D01*
X118242706Y-50256938D01*
X118310457Y-50286405D01*
X118383183Y-50316041D01*
X118445703Y-50339670D01*
X118448457Y-50340642D01*
X118497360Y-50358543D01*
X118535057Y-50373680D01*
X118553425Y-50382790D01*
X118553456Y-50382816D01*
X118559285Y-50399283D01*
X118569192Y-50439781D01*
X118582195Y-50499758D01*
X118597309Y-50574660D01*
X118613552Y-50659936D01*
X118614881Y-50667125D01*
X118631175Y-50754986D01*
X118646133Y-50834740D01*
X118658791Y-50901319D01*
X118668186Y-50949653D01*
X118673354Y-50974675D01*
X118673444Y-50975057D01*
X118676589Y-50985701D01*
X118682704Y-50993738D01*
X118695453Y-50999533D01*
X118718500Y-51003453D01*
X118755509Y-51005865D01*
X118810144Y-51007135D01*
X118886067Y-51007629D01*
X118986944Y-51007714D01*
X119000000Y-51007714D01*
X119103910Y-51007652D01*
G37*
X119103910Y-51007652D02*
X119182454Y-51007222D01*
X119239298Y-51006058D01*
X119278105Y-51003793D01*
X119302538Y-51000060D01*
X119316262Y-50994494D01*
X119322940Y-50986727D01*
X119326236Y-50976395D01*
X119326556Y-50975057D01*
X119331562Y-50950921D01*
X119340829Y-50903299D01*
X119353392Y-50837259D01*
X119368287Y-50757872D01*
X119384551Y-50670204D01*
X119385119Y-50667125D01*
X119401410Y-50581211D01*
X119416652Y-50505304D01*
X119429861Y-50443955D01*
X119440054Y-50401718D01*
X119446248Y-50383145D01*
X119446543Y-50382816D01*
X119464788Y-50373747D01*
X119502405Y-50358633D01*
X119551271Y-50340738D01*
X119551543Y-50340642D01*
X119613093Y-50317507D01*
X119685657Y-50288035D01*
X119754057Y-50258403D01*
X119757294Y-50256938D01*
X119868702Y-50206374D01*
X120115399Y-50374840D01*
X120191077Y-50426197D01*
X120259631Y-50472111D01*
X120317088Y-50509970D01*
X120359476Y-50537163D01*
X120382825Y-50551079D01*
X120385042Y-50552111D01*
X120402010Y-50547516D01*
X120433701Y-50525345D01*
X120481352Y-50484553D01*
X120546198Y-50424095D01*
X120612397Y-50359773D01*
X120676214Y-50296388D01*
X120733329Y-50238549D01*
X120780305Y-50189825D01*
X120813703Y-50153790D01*
X120830085Y-50134016D01*
X120830694Y-50132998D01*
X120832505Y-50119428D01*
X120825683Y-50097267D01*
X120808540Y-50063522D01*
X120779393Y-50015200D01*
X120736555Y-49949308D01*
X120679448Y-49864483D01*
X120628766Y-49789823D01*
X120583461Y-49722860D01*
X120546150Y-49667484D01*
X120519452Y-49627580D01*
X120505985Y-49607038D01*
X120505137Y-49605644D01*
X120506781Y-49585962D01*
X120519245Y-49547707D01*
X120540048Y-49498111D01*
X120547462Y-49482272D01*
X120579814Y-49411710D01*
X120614328Y-49331647D01*
X120642365Y-49262371D01*
X120662568Y-49210955D01*
X120678615Y-49171881D01*
X120687888Y-49151459D01*
X120689041Y-49149886D01*
X120706096Y-49147279D01*
X120746298Y-49140137D01*
X120804302Y-49129477D01*
X120874763Y-49116315D01*
X120952335Y-49101667D01*
X121031672Y-49086551D01*
X121107431Y-49071982D01*
X121174264Y-49058978D01*
X121226828Y-49048555D01*
X121259776Y-49041730D01*
X121267857Y-49039801D01*
X121276205Y-49035038D01*
X121282506Y-49024282D01*
X121287045Y-49003902D01*
X121290104Y-48970266D01*
X121291967Y-48919745D01*
X121292918Y-48848708D01*
X121293240Y-48753524D01*
X121293257Y-48714508D01*
X121293257Y-48397201D01*
X121217057Y-48382161D01*
X121174663Y-48374005D01*
X121111400Y-48362101D01*
X121034962Y-48347884D01*
X120953043Y-48332790D01*
X120930400Y-48328645D01*
X120854806Y-48313947D01*
X120788953Y-48299495D01*
X120738366Y-48286625D01*
X120708574Y-48276678D01*
X120703612Y-48273713D01*
X120691426Y-48252717D01*
X120673953Y-48212033D01*
X120654577Y-48159678D01*
X120650734Y-48148400D01*
X120625339Y-48078477D01*
X120593817Y-47999582D01*
X120562969Y-47928734D01*
X120562817Y-47928405D01*
X120511447Y-47817267D01*
X120680399Y-47568747D01*
X120849352Y-47320228D01*
X120632429Y-47102942D01*
X120566819Y-47038274D01*
X120506979Y-46981267D01*
X120456267Y-46934967D01*
X120418046Y-46902416D01*
X120395675Y-46886657D01*
X120392466Y-46885657D01*
X120373626Y-46893531D01*
X120335180Y-46915422D01*
X120281330Y-46948733D01*
X120216276Y-46990869D01*
X120145940Y-47038057D01*
X120074555Y-47086190D01*
X120010908Y-47128072D01*
X119959041Y-47161129D01*
X119922995Y-47182782D01*
X119906867Y-47190457D01*
X119887189Y-47183963D01*
X119849875Y-47166850D01*
X119802621Y-47142674D01*
X119797612Y-47139987D01*
X119733977Y-47108073D01*
X119690341Y-47092421D01*
X119663202Y-47092255D01*
X119649057Y-47106796D01*
X119648975Y-47107000D01*
X119641905Y-47124221D01*
X119625042Y-47165101D01*
X119599695Y-47226475D01*
X119567171Y-47305181D01*
X119528778Y-47398053D01*
X119485822Y-47501928D01*
X119444222Y-47602498D01*
X119398504Y-47713484D01*
X119356526Y-47816297D01*
X119319548Y-47907785D01*
X119288827Y-47984799D01*
X119265622Y-48044185D01*
X119251190Y-48082791D01*
X119246743Y-48097200D01*
X119257896Y-48113728D01*
X119287069Y-48140070D01*
X119325971Y-48169113D01*
X119436757Y-48260961D01*
X119523351Y-48366241D01*
X119584716Y-48482734D01*
X119619815Y-48608224D01*
X119627608Y-48740493D01*
X119621943Y-48801543D01*
X119591078Y-48928205D01*
X119537920Y-49040059D01*
X119465767Y-49135999D01*
X119377917Y-49214924D01*
X119277665Y-49275730D01*
X119168310Y-49317313D01*
X119053147Y-49338572D01*
X118935475Y-49338401D01*
X118818590Y-49315699D01*
X118705789Y-49269362D01*
X118600369Y-49198287D01*
X118556368Y-49158089D01*
X118471979Y-49054871D01*
X118413222Y-48942075D01*
X118379704Y-48822990D01*
X118371035Y-48700905D01*
X118386823Y-48579107D01*
X118426678Y-48460884D01*
X118490207Y-48349525D01*
X118577021Y-48248316D01*
X118674029Y-48169113D01*
X118714437Y-48138838D01*
X118742982Y-48112781D01*
X118753257Y-48097175D01*
X118747877Y-48080157D01*
X118732575Y-48039500D01*
X118708612Y-47978358D01*
X118677244Y-47899881D01*
X118639732Y-47807220D01*
X118597333Y-47703528D01*
X118555663Y-47602474D01*
X118509690Y-47491393D01*
X118467107Y-47388459D01*
X118429221Y-47296835D01*
X118397340Y-47219684D01*
X118372771Y-47160169D01*
X118356820Y-47121456D01*
X118350910Y-47107000D01*
X118336948Y-47092315D01*
X118309940Y-47092358D01*
X118266413Y-47107901D01*
X118202890Y-47139716D01*
X118202388Y-47139987D01*
X118154560Y-47164677D01*
X118115897Y-47182662D01*
X118094095Y-47190386D01*
X118093133Y-47190457D01*
X118076721Y-47182622D01*
X118040487Y-47160835D01*
X117988474Y-47127672D01*
X117924725Y-47085709D01*
X117854060Y-47038057D01*
X117782116Y-46989809D01*
X117717274Y-46947849D01*
X117663735Y-46914773D01*
X117625697Y-46893179D01*
X117607533Y-46885657D01*
X117590808Y-46895543D01*
X117557180Y-46923174D01*
X117510010Y-46965505D01*
X117452658Y-47019495D01*
X117388484Y-47082101D01*
X117367497Y-47103017D01*
X117150499Y-47320377D01*
X117315668Y-47562780D01*
X117365864Y-47637219D01*
X117409919Y-47704028D01*
X117445362Y-47759335D01*
X117469719Y-47799271D01*
X117480522Y-47819964D01*
X117480838Y-47821437D01*
X117475143Y-47840942D01*
X117459826Y-47880178D01*
X117437537Y-47932570D01*
X117421893Y-47967645D01*
X117392641Y-48034799D01*
X117365094Y-48102642D01*
X117343737Y-48159966D01*
X117337935Y-48177428D01*
X117321452Y-48224062D01*
X117305340Y-48260095D01*
X117296490Y-48273713D01*
X117276960Y-48282048D01*
X117234334Y-48293863D01*
X117174145Y-48307819D01*
X117101922Y-48322578D01*
X117069600Y-48328645D01*
X116987522Y-48343727D01*
X116908795Y-48358331D01*
X116841109Y-48371020D01*
X116792160Y-48380358D01*
X116782943Y-48382161D01*
X116706743Y-48397201D01*
X116706743Y-48714508D01*
X116706914Y-48818846D01*
X116707616Y-48897787D01*
X116709134Y-48954962D01*
X116711749Y-48994001D01*
X116715746Y-49018535D01*
X116721409Y-49032195D01*
X116729020Y-49038611D01*
X116732143Y-49039801D01*
X116750978Y-49044020D01*
X116792588Y-49052438D01*
X116851630Y-49064039D01*
X116922757Y-49077805D01*
X117000625Y-49092720D01*
X117079887Y-49107768D01*
X117155198Y-49121931D01*
X117221213Y-49134194D01*
X117272587Y-49143539D01*
X117303975Y-49148950D01*
X117310959Y-49149886D01*
X117317285Y-49162404D01*
X117331290Y-49195754D01*
X117350355Y-49243623D01*
X117357634Y-49262371D01*
X117386996Y-49334805D01*
X117421571Y-49414830D01*
X117452537Y-49482272D01*
X117475323Y-49533841D01*
X117490482Y-49576215D01*
X117495542Y-49602166D01*
X117494736Y-49605644D01*
X117484041Y-49622064D01*
X117459620Y-49658583D01*
X117424095Y-49711313D01*
X117380087Y-49776365D01*
X117330217Y-49849849D01*
X117320356Y-49864355D01*
X117262492Y-49950296D01*
X117219956Y-50015739D01*
X117191054Y-50063696D01*
X117174090Y-50097180D01*
X117167367Y-50119205D01*
X117169190Y-50132783D01*
X117169236Y-50132869D01*
X117183586Y-50150703D01*
X117215323Y-50185183D01*
X117261010Y-50232732D01*
X117317204Y-50289778D01*
X117380468Y-50352745D01*
X117387602Y-50359773D01*
X117467330Y-50436980D01*
X117528857Y-50493670D01*
X117573421Y-50530890D01*
X117602257Y-50549685D01*
X117614958Y-50552111D01*
X117633494Y-50541529D01*
X117671961Y-50517084D01*
X117726386Y-50481388D01*
X117792798Y-50437053D01*
X117867225Y-50386689D01*
X117884601Y-50374840D01*
X118131297Y-50206374D01*
X118242706Y-50256938D01*
X118310457Y-50286405D01*
X118383183Y-50316041D01*
X118445703Y-50339670D01*
X118448457Y-50340642D01*
X118497360Y-50358543D01*
X118535057Y-50373680D01*
X118553425Y-50382790D01*
X118553456Y-50382816D01*
X118559285Y-50399283D01*
X118569192Y-50439781D01*
X118582195Y-50499758D01*
X118597309Y-50574660D01*
X118613552Y-50659936D01*
X118614881Y-50667125D01*
X118631175Y-50754986D01*
X118646133Y-50834740D01*
X118658791Y-50901319D01*
X118668186Y-50949653D01*
X118673354Y-50974675D01*
X118673444Y-50975057D01*
X118676589Y-50985701D01*
X118682704Y-50993738D01*
X118695453Y-50999533D01*
X118718500Y-51003453D01*
X118755509Y-51005865D01*
X118810144Y-51007135D01*
X118886067Y-51007629D01*
X118986944Y-51007714D01*
X119000000Y-51007714D01*
X119103910Y-51007652D01*
%TD*%
D12*
%TO.P,REF\u002A\u002A,1*%
%TO.N,N/C*%
X100203000Y-46863000D03*
D13*
X102978000Y-46863000D03*
X102165221Y-48825221D03*
X100203000Y-49638000D03*
X98240779Y-48825221D03*
X97428000Y-46863000D03*
X98240779Y-44900779D03*
X100203000Y-44088000D03*
X102165221Y-44900779D03*
%TD*%
D14*
%TO.P,J5,1*%
%TO.N,/LEFT+*%
X150250000Y-54000000D03*
D15*
%TO.P,J5,2*%
%TO.N,/L-OUT*%
X147710000Y-54000000D03*
%TO.P,J5,3*%
%TO.N,/R-OUT*%
X145170000Y-54000000D03*
%TO.P,J5,4*%
%TO.N,/RIGHT+*%
X142630000Y-54000000D03*
%TD*%
D16*
%TO.P,J1,R+*%
%TO.N,/R+OUT*%
X130250000Y-51700000D03*
%TO.P,J1,T1*%
%TO.N,Net-(J1-PadT1)*%
X122750000Y-51700000D03*
D17*
%TO.P,J1,R-*%
%TO.N,/R-OUT*%
X126500000Y-48000000D03*
D16*
%TO.P,J1,L+*%
%TO.N,/L+OUT*%
X115250000Y-51700000D03*
%TO.P,J1,T2*%
%TO.N,Net-(J1-PadT2)*%
X107750000Y-51700000D03*
D17*
%TO.P,J1,L-*%
%TO.N,/L-OUT*%
X111500000Y-48000000D03*
%TD*%
D18*
%TO.N,Net-(C6-Pad2)*%
X138000000Y-52000000D03*
X135000000Y-48000000D03*
%TO.N,Net-(C7-Pad1)*%
X139000000Y-44000000D03*
X155000000Y-45000000D03*
%TD*%
D19*
%TO.N,Net-(C6-Pad2)*%
X135000000Y-49000000D02*
X138000000Y-52000000D01*
X135000000Y-48000000D02*
X135000000Y-49000000D01*
%TO.N,Net-(C7-Pad1)*%
X140000000Y-45000000D02*
X139000000Y-44000000D01*
X155000000Y-45000000D02*
X140000000Y-45000000D01*
%TD*%
M02*
